<svg width="40" height="40" viewBox="0 0 40 40" fill="none" xmlns="http://www.w3.org/2000/svg">
<g clip-path="url(#clip0_514_6020)">
<path d="M5.00001 14.9999C4.99993 12.523 5.61325 10.0845 6.78521 7.90234C7.95716 5.72016 9.65128 3.86217 11.7163 2.49427C13.7813 1.12636 16.1529 0.291124 18.6193 0.0631317C21.0858 -0.164861 23.5703 0.221489 25.8511 1.18768C28.1318 2.15388 30.1378 3.66984 31.6899 5.60021C33.242 7.53058 34.292 9.81528 34.7459 12.2503C35.1999 14.6853 35.0438 17.1948 34.2916 19.5548C33.5393 21.9148 32.2144 24.0518 30.435 25.7749C29.9275 26.2649 29.5375 26.7749 29.3025 27.3224L27.3975 31.7449C27.3008 31.9691 27.1407 32.16 26.9368 32.2942C26.7328 32.4283 26.4941 32.4999 26.25 32.4999C26.5815 32.4999 26.8995 32.6316 27.1339 32.866C27.3683 33.1005 27.5 33.4184 27.5 33.7499C27.5 34.0814 27.3683 34.3994 27.1339 34.6338C26.8995 34.8682 26.5815 34.9999 26.25 34.9999C26.5815 34.9999 26.8995 35.1316 27.1339 35.366C27.3683 35.6005 27.5 35.9184 27.5 36.2499C27.5 36.5814 27.3683 36.8994 27.1339 37.1338C26.8995 37.3682 26.5815 37.4999 26.25 37.4999L25.69 38.6174C25.4825 39.0326 25.1636 39.3819 24.7688 39.626C24.3741 39.8702 23.9192 39.9997 23.455 39.9999H16.545C16.0809 39.9997 15.6259 39.8702 15.2312 39.626C14.8365 39.3819 14.5175 39.0326 14.31 38.6174L13.75 37.4999C13.4185 37.4999 13.1005 37.3682 12.8661 37.1338C12.6317 36.8994 12.5 36.5814 12.5 36.2499C12.5 35.9184 12.6317 35.6005 12.8661 35.366C13.1005 35.1316 13.4185 34.9999 13.75 34.9999C13.4185 34.9999 13.1005 34.8682 12.8661 34.6338C12.6317 34.3994 12.5 34.0814 12.5 33.7499C12.5 33.4184 12.6317 33.1005 12.8661 32.866C13.1005 32.6316 13.4185 32.4999 13.75 32.4999C13.5055 32.5004 13.2662 32.4291 13.0618 32.2949C12.8574 32.1607 12.6968 31.9695 12.6 31.7449L10.6975 27.3199C10.4251 26.7356 10.0403 26.2106 9.56501 25.7749C8.11907 24.3778 6.96958 22.7036 6.18524 20.8523C5.4009 19.001 4.99779 17.0105 5.00001 14.9999ZM20 2.49993C17.5104 2.4995 15.0774 3.2425 13.0128 4.6337C10.9482 6.02491 9.34603 8.00093 8.41165 10.3085C7.47728 12.6161 7.25326 15.1502 7.7683 17.5859C8.28335 20.0216 9.51399 22.2481 11.3025 23.9799C11.96 24.6149 12.5875 25.3899 12.9925 26.3324L14.575 29.9999H25.43L27.01 26.3324C27.415 25.3899 28.0425 24.6149 28.7 23.9799C30.4887 22.2479 31.7194 20.0213 32.2343 17.5853C32.7493 15.1493 32.5251 12.6151 31.5904 10.3074C30.6557 7.99966 29.0532 6.02367 26.9882 4.63266C24.9232 3.24165 22.4898 2.499 20 2.49993Z" fill="white"/>
</g>
<defs>
<clipPath id="clip0_514_6020">
<rect width="40" height="40" fill="white"/>
</clipPath>
</defs>
</svg>
