<svg width="44" height="44" viewBox="0 0 44 44" fill="none" xmlns="http://www.w3.org/2000/svg">
<path fill-rule="evenodd" clip-rule="evenodd" d="M14.108 31.207C14.108 30.8582 14.2466 30.5236 14.4932 30.277C14.7399 30.0303 15.0744 29.8917 15.4233 29.8917H39.0985C39.4474 29.8917 39.7819 30.0303 40.0286 30.277C40.2753 30.5236 40.4138 30.8582 40.4138 31.207C40.4138 31.5559 40.2753 31.8904 40.0286 32.1371C39.7819 32.3837 39.4474 32.5223 39.0985 32.5223H15.4233C15.0744 32.5223 14.7399 32.3837 14.4932 32.1371C14.2466 31.8904 14.108 31.5559 14.108 31.207ZM14.108 20.6847C14.108 20.3358 14.2466 20.0013 14.4932 19.7546C14.7399 19.508 15.0744 19.3694 15.4233 19.3694H39.0985C39.4474 19.3694 39.7819 19.508 40.0286 19.7546C40.2753 20.0013 40.4138 20.3358 40.4138 20.6847C40.4138 21.0335 40.2753 21.3681 40.0286 21.6147C39.7819 21.8614 39.4474 22 39.0985 22H15.4233C15.0744 22 14.7399 21.8614 14.4932 21.6147C14.2466 21.3681 14.108 21.0335 14.108 20.6847ZM14.108 10.1623C14.108 9.8135 14.2466 9.47895 14.4932 9.23229C14.7399 8.98562 15.0744 8.84705 15.4233 8.84705H39.0985C39.4474 8.84705 39.7819 8.98562 40.0286 9.23229C40.2753 9.47895 40.4138 9.8135 40.4138 10.1623C40.4138 10.5112 40.2753 10.8457 40.0286 11.0924C39.7819 11.3391 39.4474 11.4776 39.0985 11.4776H15.4233C15.0744 11.4776 14.7399 11.3391 14.4932 11.0924C14.2466 10.8457 14.108 10.5112 14.108 10.1623ZM11.0933 6.60053C11.2158 6.72271 11.313 6.86785 11.3793 7.02765C11.4456 7.18744 11.4798 7.35875 11.4798 7.53175C11.4798 7.70476 11.4456 7.87607 11.3793 8.03586C11.313 8.19566 11.2158 8.3408 11.0933 8.46298L7.14746 12.4089C7.02528 12.5313 6.88013 12.6285 6.72034 12.6948C6.56054 12.7611 6.38924 12.7953 6.21623 12.7953C6.04322 12.7953 5.87192 12.7611 5.71212 12.6948C5.55233 12.6285 5.40718 12.5313 5.285 12.4089L3.96971 11.0936C3.84742 10.9713 3.75041 10.8261 3.68423 10.6663C3.61805 10.5065 3.58398 10.3353 3.58398 10.1623C3.58398 9.98939 3.61805 9.81814 3.68423 9.65836C3.75041 9.49858 3.84742 9.3534 3.96971 9.23111C4.092 9.10882 4.23718 9.01182 4.39696 8.94563C4.55674 8.87945 4.72799 8.84539 4.90094 8.84539C5.07388 8.84539 5.24513 8.87945 5.40491 8.94563C5.56469 9.01182 5.70987 9.10882 5.83217 9.23111L6.21623 9.61781L9.23088 6.60053C9.35306 6.47804 9.4982 6.38086 9.658 6.31455C9.81779 6.24824 9.9891 6.21411 10.1621 6.21411C10.3351 6.21411 10.5064 6.24824 10.6662 6.31455C10.826 6.38086 10.9712 6.47804 11.0933 6.60053ZM11.0933 17.1229C11.2158 17.245 11.313 17.3902 11.3793 17.55C11.4456 17.7098 11.4798 17.8811 11.4798 18.0541C11.4798 18.2271 11.4456 18.3984 11.3793 18.5582C11.313 18.718 11.2158 18.8631 11.0933 18.9853L7.14746 22.9312C7.02528 23.0537 6.88013 23.1509 6.72034 23.2172C6.56054 23.2835 6.38924 23.3176 6.21623 23.3176C6.04322 23.3176 5.87192 23.2835 5.71212 23.2172C5.55233 23.1509 5.40718 23.0537 5.285 22.9312L3.96971 21.6159C3.72273 21.3689 3.58398 21.034 3.58398 20.6847C3.58398 20.3354 3.72273 20.0004 3.96971 19.7535C4.21669 19.5065 4.55166 19.3677 4.90094 19.3677C5.25022 19.3677 5.58519 19.5065 5.83217 19.7535L6.21623 20.1401L9.23088 17.1229C9.35306 17.0004 9.4982 16.9032 9.658 16.8369C9.81779 16.7706 9.9891 16.7365 10.1621 16.7365C10.3351 16.7365 10.5064 16.7706 10.6662 16.8369C10.826 16.9032 10.9712 17.0004 11.0933 17.1229ZM11.0933 27.6452C11.2158 27.7674 11.313 27.9125 11.3793 28.0723C11.4456 28.2321 11.4798 28.4034 11.4798 28.5764C11.4798 28.7494 11.4456 28.9207 11.3793 29.0805C11.313 29.2403 11.2158 29.3855 11.0933 29.5077L7.14746 33.4535C7.02528 33.576 6.88013 33.6732 6.72034 33.7395C6.56054 33.8058 6.38924 33.84 6.21623 33.84C6.04322 33.84 5.87192 33.8058 5.71212 33.7395C5.55233 33.6732 5.40718 33.576 5.285 33.4535L3.96971 32.1382C3.72273 31.8913 3.58398 31.5563 3.58398 31.207C3.58398 30.8577 3.72273 30.5228 3.96971 30.2758C4.21669 30.0288 4.55166 29.8901 4.90094 29.8901C5.25022 29.8901 5.58519 30.0288 5.83217 30.2758L6.21623 30.6625L9.23088 27.6452C9.35306 27.5227 9.4982 27.4255 9.658 27.3592C9.81779 27.2929 9.9891 27.2588 10.1621 27.2588C10.3351 27.2588 10.5064 27.2929 10.6662 27.3592C10.826 27.4255 10.9712 27.5227 11.0933 27.6452Z" fill="white"/>
</svg>
