<svg width="152" height="42" viewBox="0 0 152 42" fill="currentColor" xmlns="http://www.w3.org/2000/svg">
<path d="M10.2227 30.7916C10.0695 30.7916 9.96232 30.7227 9.90106 30.5849L7.02952 24.2216C6.99889 24.1603 6.95295 24.1297 6.89169 24.1297H4.75526C4.67869 24.1297 4.6404 24.1679 4.6404 24.2445V30.516C4.6404 30.5925 4.60977 30.6614 4.54851 30.7227C4.50257 30.7687 4.44131 30.7916 4.36474 30.7916H1.67698C1.6004 30.7916 1.53149 30.7687 1.47023 30.7227C1.42428 30.6614 1.40131 30.5925 1.40131 30.516V14.9867C1.40131 14.9101 1.42428 14.8489 1.47023 14.8029C1.53149 14.7417 1.6004 14.711 1.67698 14.711H8.24705C9.2272 14.711 10.0848 14.9101 10.8199 15.3083C11.5704 15.7065 12.1447 16.2731 12.5429 17.0083C12.9564 17.7434 13.1631 18.5933 13.1631 19.5582C13.1631 20.5996 12.9028 21.4955 12.3821 22.2459C11.8614 22.981 11.1339 23.5018 10.1997 23.808C10.1231 23.8387 10.1002 23.8923 10.1308 23.9689L13.255 30.47C13.2856 30.5313 13.301 30.5772 13.301 30.6078C13.301 30.7304 13.2167 30.7916 13.0483 30.7916H10.2227ZM4.75526 17.4907C4.67869 17.4907 4.6404 17.529 4.6404 17.6055V21.5338C4.6404 21.6104 4.67869 21.6487 4.75526 21.6487H7.76464C8.40786 21.6487 8.92856 21.4572 9.32675 21.0743C9.74025 20.6915 9.947 20.1937 9.947 19.5811C9.947 18.9686 9.74025 18.4708 9.32675 18.0879C8.92856 17.6898 8.40786 17.4907 7.76464 17.4907H4.75526ZM21.2323 31.0443C20.0378 31.0443 18.981 30.7993 18.0621 30.3092C17.1586 29.8191 16.4541 29.1376 15.9487 28.2647C15.4433 27.3764 15.1906 26.358 15.1906 25.2094V20.2933C15.1906 19.16 15.4433 18.1569 15.9487 17.2839C16.4541 16.411 17.1586 15.7371 18.0621 15.2624C18.981 14.7723 20.0378 14.5272 21.2323 14.5272C22.4422 14.5272 23.4989 14.7723 24.4025 15.2624C25.3214 15.7371 26.0335 16.411 26.5389 17.2839C27.0443 18.1569 27.297 19.16 27.297 20.2933V25.2094C27.297 26.358 27.0443 27.3764 26.5389 28.2647C26.0335 29.1529 25.3214 29.8421 24.4025 30.3322C23.4989 30.8069 22.4422 31.0443 21.2323 31.0443ZM21.2323 28.2647C22.0746 28.2647 22.7561 27.9967 23.2769 27.4606C23.7976 26.9246 24.0579 26.2125 24.0579 25.3242V20.2703C24.0579 19.3821 23.7976 18.6699 23.2769 18.1339C22.7715 17.5826 22.09 17.3069 21.2323 17.3069C20.39 17.3069 19.7085 17.5826 19.1878 18.1339C18.6824 18.6699 18.4297 19.3821 18.4297 20.2703V25.3242C18.4297 26.2125 18.6824 26.9246 19.1878 27.4606C19.7085 27.9967 20.39 28.2647 21.2323 28.2647ZM35.4314 30.9754C34.2368 30.9754 33.1877 30.7457 32.2841 30.2862C31.3806 29.8115 30.6837 29.1529 30.1937 28.3106C29.7036 27.4683 29.4586 26.4958 29.4586 25.3931V20.0865C29.4586 18.9839 29.7036 18.0114 30.1937 17.1691C30.6837 16.3267 31.3806 15.6759 32.2841 15.2164C33.1877 14.757 34.2368 14.5272 35.4314 14.5272C36.6106 14.5272 37.6443 14.7493 38.5326 15.1934C39.4362 15.6223 40.133 16.2425 40.6231 17.0542C41.1285 17.8506 41.3812 18.7771 41.3812 19.8338C41.3812 19.9717 41.2893 20.0559 41.1055 20.0865L38.4177 20.2473H38.3718C38.2187 20.2473 38.1421 20.1631 38.1421 19.9946C38.1421 19.183 37.8894 18.5321 37.384 18.042C36.8939 17.5519 36.243 17.3069 35.4314 17.3069C34.6043 17.3069 33.9382 17.5519 33.4328 18.042C32.9427 18.5321 32.6976 19.183 32.6976 19.9946V25.531C32.6976 26.3273 32.9427 26.9706 33.4328 27.4606C33.9382 27.9507 34.6043 28.1958 35.4314 28.1958C36.243 28.1958 36.8939 27.9507 37.384 27.4606C37.8894 26.9706 38.1421 26.3273 38.1421 25.531C38.1421 25.3625 38.234 25.2783 38.4177 25.2783L41.1055 25.3931C41.1821 25.3931 41.2433 25.4161 41.2893 25.4621C41.3505 25.508 41.3812 25.5616 41.3812 25.6229C41.3812 26.6796 41.1285 27.6138 40.6231 28.4255C40.133 29.2372 39.4362 29.8651 38.5326 30.3092C37.6443 30.7533 36.6106 30.9754 35.4314 30.9754ZM44.0321 30.7916C43.9556 30.7916 43.8866 30.7687 43.8254 30.7227C43.7794 30.6614 43.7565 30.5925 43.7565 30.516V14.9867C43.7565 14.9101 43.7794 14.8489 43.8254 14.8029C43.8866 14.7417 43.9556 14.711 44.0321 14.711H46.7199C46.7965 14.711 46.8577 14.7417 46.9037 14.8029C46.9649 14.8489 46.9956 14.9101 46.9956 14.9867V21.4189C46.9956 21.4649 47.0109 21.4955 47.0415 21.5108C47.0721 21.5108 47.1028 21.4955 47.1334 21.4649L52.44 14.8718C52.5319 14.7646 52.6468 14.711 52.7846 14.711H55.8169C55.9394 14.711 56.016 14.7493 56.0466 14.8259C56.0773 14.8871 56.062 14.9637 56.0007 15.0556L50.8779 21.6027C50.8319 21.664 50.8243 21.7176 50.8549 21.7635L56.2764 30.47C56.307 30.5619 56.3223 30.6155 56.3223 30.6308C56.3223 30.738 56.2457 30.7916 56.0926 30.7916H53.0603C52.9071 30.7916 52.7999 30.7304 52.7386 30.6078L48.6496 23.9918C48.6343 23.9612 48.6113 23.9459 48.5807 23.9459C48.55 23.9459 48.5194 23.9612 48.4888 23.9918L47.0415 25.8066C47.0109 25.8679 46.9956 25.9138 46.9956 25.9445V30.516C46.9956 30.5925 46.9649 30.6614 46.9037 30.7227C46.8577 30.7687 46.7965 30.7916 46.7199 30.7916H44.0321ZM69.3011 17.215C69.3011 17.2916 69.2705 17.3605 69.2092 17.4218C69.1633 17.4677 69.102 17.4907 69.0255 17.4907H61.4905C61.414 17.4907 61.3757 17.529 61.3757 17.6055V21.1662C61.3757 21.2428 61.414 21.2811 61.4905 21.2811H66.4296C66.5062 21.2811 66.5674 21.3117 66.6134 21.373C66.6746 21.4189 66.7053 21.4802 66.7053 21.5568V23.7851C66.7053 23.8617 66.6746 23.9306 66.6134 23.9918C66.5674 24.0378 66.5062 24.0607 66.4296 24.0607H61.4905C61.414 24.0607 61.3757 24.099 61.3757 24.1756V27.8971C61.3757 27.9737 61.414 28.012 61.4905 28.012H69.0255C69.102 28.012 69.1633 28.0426 69.2092 28.1039C69.2705 28.1498 69.3011 28.2111 69.3011 28.2876V30.516C69.3011 30.5925 69.2705 30.6614 69.2092 30.7227C69.1633 30.7687 69.102 30.7916 69.0255 30.7916H58.4123C58.3357 30.7916 58.2668 30.7687 58.2055 30.7227C58.1596 30.6614 58.1366 30.5925 58.1366 30.516V14.9867C58.1366 14.9101 58.1596 14.8489 58.2055 14.8029C58.2668 14.7417 58.3357 14.711 58.4123 14.711H69.0255C69.102 14.711 69.1633 14.7417 69.2092 14.8029C69.2705 14.8489 69.3011 14.9101 69.3011 14.9867V17.215ZM82.6477 14.711C82.7242 14.711 82.7855 14.7417 82.8314 14.8029C82.8927 14.8489 82.9233 14.9101 82.9233 14.9867V17.238C82.9233 17.3145 82.8927 17.3835 82.8314 17.4447C82.7855 17.4907 82.7242 17.5136 82.6477 17.5136H78.5356C78.4591 17.5136 78.4208 17.5519 78.4208 17.6285V30.516C78.4208 30.5925 78.3901 30.6614 78.3289 30.7227C78.2829 30.7687 78.2217 30.7916 78.1451 30.7916H75.4573C75.3808 30.7916 75.3119 30.7687 75.2506 30.7227C75.2046 30.6614 75.1817 30.5925 75.1817 30.516V17.6285C75.1817 17.5519 75.1434 17.5136 75.0668 17.5136H71.0696C70.9931 17.5136 70.9241 17.4907 70.8629 17.4447C70.8169 17.3835 70.794 17.3145 70.794 17.238V14.9867C70.794 14.9101 70.8169 14.8489 70.8629 14.8029C70.9241 14.7417 70.9931 14.711 71.0696 14.711H82.6477ZM96.1315 17.215C96.1315 17.2916 96.1009 17.3605 96.0396 17.4218C95.9937 17.4677 95.9324 17.4907 95.8558 17.4907H88.3439C88.2673 17.4907 88.229 17.529 88.229 17.6055V21.1662C88.229 21.2428 88.2673 21.2811 88.3439 21.2811H93.2829C93.3595 21.2811 93.4208 21.3117 93.4667 21.373C93.528 21.4189 93.5586 21.4802 93.5586 21.5568V23.7851C93.5586 23.8617 93.528 23.9306 93.4667 23.9918C93.4208 24.0378 93.3595 24.0607 93.2829 24.0607H88.3439C88.2673 24.0607 88.229 24.099 88.229 24.1756V30.516C88.229 30.5925 88.1984 30.6614 88.1371 30.7227C88.0912 30.7687 88.0299 30.7916 87.9534 30.7916H85.2656C85.189 30.7916 85.1201 30.7687 85.0589 30.7227C85.0129 30.6614 84.9899 30.5925 84.9899 30.516V14.9867C84.9899 14.9101 85.0129 14.8489 85.0589 14.8029C85.1201 14.7417 85.189 14.711 85.2656 14.711H95.8558C95.9324 14.711 95.9937 14.7417 96.0396 14.8029C96.1009 14.8489 96.1315 14.9101 96.1315 14.9867V17.215ZM98.1202 30.7916C98.0436 30.7916 97.9747 30.7687 97.9135 30.7227C97.8675 30.6614 97.8446 30.5925 97.8446 30.516V14.9867C97.8446 14.9101 97.8675 14.8489 97.9135 14.8029C97.9747 14.7417 98.0436 14.711 98.1202 14.711H100.808C100.885 14.711 100.946 14.7417 100.992 14.8029C101.053 14.8489 101.084 14.9101 101.084 14.9867V27.8971C101.084 27.9737 101.122 28.012 101.199 28.012H108.71C108.787 28.012 108.848 28.0426 108.894 28.1039C108.955 28.1498 108.986 28.2111 108.986 28.2876V30.516C108.986 30.5925 108.955 30.6614 108.894 30.7227C108.848 30.7687 108.787 30.7916 108.71 30.7916H98.1202ZM116.531 31.0443C115.337 31.0443 114.28 30.7993 113.361 30.3092C112.458 29.8191 111.753 29.1376 111.248 28.2647C110.742 27.3764 110.49 26.358 110.49 25.2094V20.2933C110.49 19.16 110.742 18.1569 111.248 17.2839C111.753 16.411 112.458 15.7371 113.361 15.2624C114.28 14.7723 115.337 14.5272 116.531 14.5272C117.741 14.5272 118.798 14.7723 119.702 15.2624C120.621 15.7371 121.333 16.411 121.838 17.2839C122.343 18.1569 122.596 19.16 122.596 20.2933V25.2094C122.596 26.358 122.343 27.3764 121.838 28.2647C121.333 29.1529 120.621 29.8421 119.702 30.3322C118.798 30.8069 117.741 31.0443 116.531 31.0443ZM116.531 28.2647C117.374 28.2647 118.055 27.9967 118.576 27.4606C119.097 26.9246 119.357 26.2125 119.357 25.3242V20.2703C119.357 19.3821 119.097 18.6699 118.576 18.1339C118.071 17.5826 117.389 17.3069 116.531 17.3069C115.689 17.3069 115.008 17.5826 114.487 18.1339C113.982 18.6699 113.729 19.3821 113.729 20.2703V25.3242C113.729 26.2125 113.982 26.9246 114.487 27.4606C115.008 27.9967 115.689 28.2647 116.531 28.2647ZM128.303 30.7916C128.135 30.7916 128.028 30.7151 127.982 30.5619L123.916 15.0097L123.893 14.9178C123.893 14.7799 123.977 14.711 124.145 14.711H126.994C127.147 14.711 127.247 14.7876 127.293 14.9407L129.475 24.2905C129.49 24.3517 129.513 24.3824 129.544 24.3824C129.575 24.3824 129.598 24.3517 129.613 24.2905L131.726 14.9637C131.772 14.7953 131.872 14.711 132.025 14.711H134.805C134.973 14.711 135.08 14.7876 135.126 14.9407L137.423 24.2905C137.439 24.3364 137.462 24.367 137.492 24.3824C137.523 24.3824 137.546 24.3517 137.561 24.2905L139.675 14.9637C139.721 14.7953 139.82 14.711 139.973 14.711H142.684C142.899 14.711 142.983 14.8106 142.937 15.0097L139.169 30.5619C139.123 30.7151 139.016 30.7916 138.848 30.7916H136.114C135.961 30.7916 135.861 30.7151 135.815 30.5619L133.472 20.6149C133.457 20.5536 133.434 20.523 133.403 20.523C133.373 20.523 133.35 20.5536 133.334 20.6149L131.152 30.5389C131.121 30.7074 131.022 30.7916 130.853 30.7916H128.303Z" fill="white"/>
<path d="M9.90106 30.5849L10.2509 30.4294L10.25 30.4274L9.90106 30.5849ZM7.02952 24.2215L7.37851 24.0641L7.37538 24.0571L7.37197 24.0503L7.02952 24.2215ZM4.54851 30.7227L4.81924 30.9934H4.81925L4.54851 30.7227ZM1.47023 30.7227L1.16393 30.9524L1.19675 30.9962L1.2405 31.029L1.47023 30.7227ZM1.47023 14.8029L1.1995 14.5322L1.19949 14.5322L1.47023 14.8029ZM10.82 15.3083L10.6376 15.645L10.6405 15.6465L10.82 15.3083ZM12.5429 17.0083L12.2062 17.1906L12.2092 17.196L12.5429 17.0083ZM12.3821 22.2459L12.6945 22.4672L12.6966 22.4642L12.3821 22.2459ZM10.1997 23.808L10.0804 23.4442L10.0688 23.448L10.0575 23.4526L10.1997 23.808ZM10.1308 23.9689L9.77529 24.111L9.78009 24.123L9.78569 24.1347L10.1308 23.9689ZM13.255 30.47L12.9099 30.6359L12.9126 30.6412L13.255 30.47ZM9.32675 21.0743L9.06658 20.7934L9.06138 20.7984L9.32675 21.0743ZM9.32675 18.0879L9.05602 18.3587L9.06122 18.3639L9.06662 18.3689L9.32675 18.0879ZM10.2227 30.4088C10.213 30.4088 10.2109 30.4077 10.2144 30.4086C10.2183 30.4096 10.2258 30.4123 10.2344 30.4179C10.2432 30.4235 10.2492 30.4295 10.2524 30.4335C10.2554 30.4371 10.2542 30.4368 10.2509 30.4294L9.55119 30.7404C9.60649 30.8648 9.69313 30.9802 9.82036 31.062C9.94721 31.1435 10.0876 31.1745 10.2227 31.1745V30.4088ZM10.25 30.4274L7.37851 24.0641L6.68054 24.379L9.55207 30.7424L10.25 30.4274ZM7.37197 24.0503C7.33395 23.9743 7.27473 23.8942 7.18447 23.8341C7.09182 23.7723 6.98931 23.7468 6.89169 23.7468V24.5125C6.85532 24.5125 6.80642 24.5023 6.75971 24.4712C6.7154 24.4417 6.69447 24.4076 6.68707 24.3928L7.37197 24.0503ZM6.89169 23.7468H4.75526V24.5125H6.89169V23.7468ZM4.75526 23.7468C4.65796 23.7468 4.51466 23.7714 4.39839 23.8876C4.28212 24.0039 4.25753 24.1472 4.25753 24.2445H5.02327C5.02327 24.2653 5.01783 24.3511 4.93985 24.4291C4.86187 24.5071 4.77599 24.5125 4.75526 24.5125V23.7468ZM4.25753 24.2445V30.516H5.02327V24.2445H4.25753ZM4.25753 30.516C4.25753 30.5015 4.26078 30.4848 4.26756 30.4696C4.27394 30.4552 4.28007 30.4497 4.27778 30.452L4.81925 30.9934C4.94203 30.8707 5.02327 30.7077 5.02327 30.516H4.25753ZM4.27778 30.452C4.29373 30.436 4.3135 30.4235 4.33368 30.4159C4.34302 30.4124 4.35083 30.4106 4.35635 30.4097C4.35908 30.4092 4.36119 30.409 4.3626 30.4089C4.36331 30.4088 4.36384 30.4088 4.3642 30.4088C4.36438 30.4088 4.36451 30.4088 4.3646 30.4088C4.36465 30.4088 4.36468 30.4088 4.3647 30.4088C4.36471 30.4088 4.36472 30.4088 4.36473 30.4088C4.36473 30.4088 4.36473 30.4088 4.36473 30.4088C4.36474 30.4088 4.36474 30.4088 4.36474 30.4088V31.1745C4.52334 31.1745 4.68879 31.1239 4.81924 30.9934L4.27778 30.452ZM4.36474 30.4088H1.67698V31.1745H4.36474V30.4088ZM1.67698 30.4088C1.67698 30.4088 1.67698 30.4088 1.67698 30.4088C1.67698 30.4088 1.67698 30.4088 1.67698 30.4088C1.67698 30.4088 1.67699 30.4088 1.67699 30.4088C1.67701 30.4088 1.67702 30.4088 1.67704 30.4088C1.67709 30.4088 1.67715 30.4088 1.67724 30.4088C1.67741 30.4088 1.67766 30.4088 1.67799 30.4088C1.67864 30.4089 1.67956 30.409 1.6807 30.4091C1.68305 30.4095 1.68588 30.4102 1.68893 30.4112C1.69558 30.4134 1.69945 30.416 1.69995 30.4164L1.2405 31.029C1.36804 31.1247 1.51756 31.1745 1.67698 31.1745V30.4088ZM1.77652 30.493C1.7765 30.493 1.77655 30.493 1.77652 30.493C1.7765 30.493 1.77655 30.493 1.77652 30.493C1.77653 30.493 1.77653 30.493 1.77653 30.493C1.77653 30.493 1.77653 30.493 1.77653 30.493C1.77654 30.493 1.77655 30.493 1.77656 30.493C1.77659 30.4931 1.77663 30.4931 1.77668 30.4932C1.77677 30.4933 1.77691 30.4935 1.77709 30.4938C1.77744 30.4944 1.77791 30.4952 1.77845 30.4962C1.77957 30.4983 1.78075 30.5009 1.78176 30.504C1.78278 30.5071 1.78343 30.5099 1.7838 30.5122C1.78398 30.5134 1.78408 30.5143 1.78413 30.5149C1.78416 30.5153 1.78417 30.5155 1.78417 30.5157C1.78418 30.5158 1.78418 30.5158 1.78418 30.5159C1.78418 30.5159 1.78418 30.5159 1.78418 30.5159C1.78418 30.5159 1.78418 30.516 1.78418 30.516V30.516C1.78418 30.5159 1.78418 30.516 1.78418 30.516C1.78418 30.5159 1.78418 30.516 1.78418 30.516H1.01844C1.01844 30.6754 1.06828 30.8249 1.16393 30.9524L1.77652 30.493ZM1.78418 30.516V14.9867H1.01844V30.516H1.78418ZM1.78418 14.9867C1.78418 14.9867 1.78418 14.9867 1.78418 14.9867C1.78418 14.9867 1.78418 14.9867 1.78418 14.9867C1.78418 14.9867 1.78418 14.9867 1.78418 14.9867C1.78418 14.9867 1.78418 14.9868 1.78418 14.9868C1.78418 14.9869 1.78417 14.987 1.78417 14.9872C1.78415 14.9876 1.78413 14.9881 1.78407 14.9888C1.78396 14.9902 1.78373 14.9923 1.78328 14.9951C1.78236 15.0006 1.78054 15.0084 1.77703 15.0177C1.76947 15.0379 1.75691 15.0577 1.74096 15.0736L1.19949 14.5322C1.06904 14.6626 1.01844 14.8281 1.01844 14.9867H1.78418ZM1.74096 15.0736C1.74324 15.0714 1.73773 15.0775 1.72336 15.0839C1.7081 15.0906 1.69141 15.0939 1.67698 15.0939V14.3281C1.48519 14.3281 1.32228 14.4094 1.1995 14.5322L1.74096 15.0736ZM1.67698 15.0939H8.24705V14.3281H1.67698V15.0939ZM8.24705 15.0939C9.17453 15.0939 9.96742 15.2819 10.6376 15.645L11.0023 14.9716C10.2023 14.5383 9.27988 14.3281 8.24705 14.3281V15.0939ZM10.6405 15.6465C11.3255 16.01 11.8446 16.5229 12.2062 17.1906L12.8795 16.8259C12.4448 16.0234 11.8153 15.403 10.9994 14.9701L10.6405 15.6465ZM12.2092 17.196C12.586 17.8659 12.7803 18.6495 12.7803 19.5582H13.546C13.546 18.5372 13.3267 17.6208 12.8766 16.8205L12.2092 17.196ZM12.7803 19.5582C12.7803 20.5329 12.5377 21.35 12.0675 22.0277L12.6966 22.4642C13.2679 21.641 13.546 20.6663 13.546 19.5582H12.7803ZM12.0696 22.0246C11.6008 22.6866 10.9442 23.161 10.0804 23.4442L10.319 24.1719C11.3237 23.8425 12.122 23.2755 12.6945 22.4672L12.0696 22.0246ZM10.0575 23.4526C9.96442 23.4898 9.83872 23.5673 9.77312 23.7204C9.70753 23.8735 9.73806 24.018 9.77529 24.111L10.4863 23.8267C10.4929 23.8432 10.5196 23.9226 10.477 24.022C10.4343 24.1215 10.3584 24.1569 10.3419 24.1635L10.0575 23.4526ZM9.78569 24.1347L12.9099 30.6359L13.6001 30.3042L10.4759 23.803L9.78569 24.1347ZM12.9126 30.6412C12.9174 30.651 12.9209 30.6585 12.9232 30.6639C12.9256 30.6694 12.9264 30.6719 12.9262 30.6715C12.9262 30.6713 12.9245 30.6663 12.9227 30.6571C12.9209 30.6483 12.9181 30.6312 12.9181 30.6078H13.6838C13.6838 30.4797 13.6296 30.363 13.5975 30.2988L12.9126 30.6412ZM12.9181 30.6078C12.9181 30.5949 12.9204 30.5653 12.9371 30.5287C12.9548 30.4901 12.9822 30.4582 13.0126 30.436C13.0652 30.3978 13.0975 30.4088 13.0483 30.4088V31.1745C13.1675 31.1745 13.3261 31.1549 13.463 31.0553C13.6225 30.9393 13.6838 30.767 13.6838 30.6078H12.9181ZM13.0483 30.4088H10.2227V31.1745H13.0483V30.4088ZM4.75526 17.1078C4.65796 17.1078 4.51466 17.1324 4.39839 17.2487C4.28212 17.3649 4.25753 17.5082 4.25753 17.6055H5.02327C5.02327 17.6263 5.01783 17.7121 4.93985 17.7901C4.86187 17.8681 4.776 17.8735 4.75526 17.8735V17.1078ZM4.25753 17.6055V21.5338H5.02327V17.6055H4.25753ZM4.25753 21.5338C4.25753 21.6311 4.28212 21.7744 4.39839 21.8907C4.51466 22.0069 4.65796 22.0315 4.75526 22.0315V21.2658C4.77599 21.2658 4.86187 21.2712 4.93985 21.3492C5.01783 21.4272 5.02327 21.5131 5.02327 21.5338H4.25753ZM4.75526 22.0315H7.76464V21.2658H4.75526V22.0315ZM7.76464 22.0315C8.48933 22.0315 9.11094 21.813 9.59212 21.3503L9.06138 20.7984C8.74619 21.1014 8.32638 21.2658 7.76464 21.2658V22.0315ZM9.58688 21.3553C10.0859 20.8932 10.3299 20.29 10.3299 19.5811H9.56413C9.56413 20.0975 9.39458 20.4898 9.06662 20.7934L9.58688 21.3553ZM10.3299 19.5811C10.3299 18.8723 10.0859 18.2691 9.58688 17.807L9.06662 18.3689C9.39458 18.6725 9.56413 19.0648 9.56413 19.5811H10.3299ZM9.59748 17.8172C9.11711 17.3368 8.49371 17.1078 7.76464 17.1078V17.8735C8.32201 17.8735 8.74002 18.0427 9.05602 18.3587L9.59748 17.8172ZM7.76464 17.1078H4.75526V17.8735H7.76464V17.1078ZM18.0621 30.3092L17.8796 30.6458L17.882 30.647L18.0621 30.3092ZM15.9487 28.2647L15.6159 28.454L15.6173 28.4565L15.9487 28.2647ZM15.9487 17.2839L16.28 17.4758L15.9487 17.2839ZM18.0621 15.2624L18.2402 15.6013L18.2423 15.6002L18.0621 15.2624ZM24.4025 15.2624L24.2199 15.599L24.2268 15.6025L24.4025 15.2624ZM26.5389 17.2839L26.2076 17.4758L26.5389 17.2839ZM24.4025 30.3322L24.5806 30.6711L24.5827 30.67L24.4025 30.3322ZM23.2769 27.4606L23.0022 27.1939L23.2769 27.4606ZM23.2769 18.1339L22.9945 18.3927L23.0022 18.4007L23.2769 18.1339ZM19.1878 18.1339L18.9094 17.871L18.9092 17.8712L19.1878 18.1339ZM19.1878 27.4606L18.9092 27.7233L18.9132 27.7274L19.1878 27.4606ZM21.2323 30.6614C20.0913 30.6614 19.0981 30.4278 18.2423 29.9714L17.882 30.647C18.864 31.1708 19.9842 31.4272 21.2323 31.4272V30.6614ZM18.2447 29.9727C17.4018 29.5155 16.7494 28.8836 16.28 28.0728L15.6173 28.4565C16.1588 29.3917 16.9153 30.1227 17.8796 30.6458L18.2447 29.9727ZM16.2815 28.0753C15.8128 27.2517 15.5735 26.3 15.5735 25.2094H14.8077C14.8077 26.416 15.0738 27.5012 15.6159 28.454L16.2815 28.0753ZM15.5735 25.2094V20.2933H14.8077V25.2094H15.5735ZM15.5735 20.2933C15.5735 19.2189 15.8124 18.2835 16.28 17.4758L15.6173 17.0921C15.0742 18.0303 14.8077 19.1011 14.8077 20.2933H15.5735ZM16.28 17.4758C16.7488 16.6661 17.3998 16.0429 18.2402 15.6013L17.8841 14.9234C16.9173 15.4314 16.1594 16.1558 15.6173 17.0921L16.28 17.4758ZM18.2423 15.6002C19.0981 15.1438 20.0913 14.9101 21.2323 14.9101V14.1444C19.9842 14.1444 18.864 14.4008 17.882 14.9245L18.2423 15.6002ZM21.2323 14.9101C22.3897 14.9101 23.3816 15.1442 24.22 15.5989L24.585 14.9258C23.6163 14.4004 22.4946 14.1444 21.2323 14.1444V14.9101ZM24.2268 15.6025C25.0824 16.0446 25.7398 16.6678 26.2076 17.4758L26.8703 17.0921C26.3273 16.1542 25.5604 15.4296 24.5782 14.9222L24.2268 15.6025ZM26.2076 17.4758C26.6752 18.2835 26.9141 19.2189 26.9141 20.2933H27.6799C27.6799 19.1011 27.4134 18.0303 26.8703 17.0921L26.2076 17.4758ZM26.9141 20.2933V25.2094H27.6799V20.2933H26.9141ZM26.9141 25.2094C26.9141 26.3 26.6748 27.2517 26.2061 28.0753L26.8717 28.454C27.4138 27.5012 27.6799 26.416 27.6799 25.2094H26.9141ZM26.2061 28.0753C25.7373 28.8994 25.0786 29.5377 24.2223 29.9944L24.5827 30.67C25.5642 30.1465 26.3298 29.4065 26.8717 28.454L26.2061 28.0753ZM24.2244 29.9932C23.3851 30.4342 22.3916 30.6614 21.2323 30.6614V31.4272C22.4928 31.4272 23.6128 31.1796 24.5806 30.6711L24.2244 29.9932ZM21.2323 28.6475C22.1637 28.6475 22.9492 28.3474 23.5515 27.7274L23.0022 27.1939C22.5631 27.6459 21.9856 27.8818 21.2323 27.8818V28.6475ZM23.5515 27.7274C24.1544 27.1067 24.4408 26.292 24.4408 25.3242H23.675C23.675 26.1329 23.4407 26.7425 23.0022 27.1939L23.5515 27.7274ZM24.4408 25.3242V20.2703H23.675V25.3242H24.4408ZM24.4408 20.2703C24.4408 19.3025 24.1544 18.4878 23.5515 17.8671L23.0022 18.4007C23.4407 18.852 23.675 19.4616 23.675 20.2703H24.4408ZM23.5591 17.8752C22.9702 17.2328 22.1799 16.924 21.2323 16.924V17.6898C22 17.6898 22.5727 17.9323 22.9946 18.3926L23.5591 17.8752ZM21.2323 16.924C20.2976 16.924 19.5109 17.2342 18.9094 17.871L19.4661 18.3968C19.9061 17.9309 20.4824 17.6898 21.2323 17.6898V16.924ZM18.9092 17.8712C18.3235 18.4924 18.0468 19.3057 18.0468 20.2703H18.8126C18.8126 19.4584 19.0413 18.8474 19.4664 18.3965L18.9092 17.8712ZM18.0468 20.2703V25.3242H18.8126V20.2703H18.0468ZM18.0468 25.3242C18.0468 26.2889 18.3235 27.1021 18.9092 27.7233L19.4664 27.198C19.0413 26.7471 18.8126 26.1361 18.8126 25.3242H18.0468ZM18.9132 27.7274C19.5154 28.3474 20.301 28.6475 21.2323 28.6475V27.8818C20.4791 27.8818 19.9016 27.6459 19.4624 27.1939L18.9132 27.7274ZM32.2841 30.2862L32.106 30.6252L32.1106 30.6275L32.2841 30.2862ZM30.1937 28.3106L29.8627 28.5032L30.1937 28.3106ZM30.1937 17.1691L29.8627 16.9765L30.1937 17.1691ZM32.2841 15.2164L32.1106 14.8751L32.2841 15.2164ZM38.5326 15.1934L38.3613 15.536L38.3685 15.5393L38.5326 15.1934ZM40.6231 17.0542L40.2952 17.2521L40.2998 17.2593L40.6231 17.0542ZM41.1055 20.0865L41.1284 20.4687L41.1485 20.4675L41.1684 20.4642L41.1055 20.0865ZM38.4177 20.2473V20.6302H38.4292L38.4406 20.6295L38.4177 20.2473ZM37.384 18.042L37.1132 18.3128L37.1175 18.3169L37.384 18.042ZM33.4328 18.042L33.1662 17.7671L33.162 17.7713L33.4328 18.042ZM33.4328 27.4606L33.162 27.7314L33.1662 27.7355L33.4328 27.4606ZM37.384 27.4606L37.1174 27.1857L37.1133 27.1899L37.384 27.4606ZM38.4177 25.2783L38.4341 24.8958L38.4259 24.8954H38.4177V25.2783ZM41.1055 25.3931L41.0892 25.7757L41.0973 25.776H41.1055V25.3931ZM41.2893 25.4621L41.0186 25.7328L41.0378 25.752L41.0596 25.7684L41.2893 25.4621ZM40.6231 28.4255L40.298 28.2231L40.2953 28.2276L40.6231 28.4255ZM38.5326 30.3092L38.3637 29.9656L38.3614 29.9668L38.5326 30.3092ZM35.4314 30.5925C34.2864 30.5925 33.2987 30.3726 32.4577 29.945L32.1106 30.6275C33.0768 31.1188 34.1872 31.3583 35.4314 31.3583V30.5925ZM32.4622 29.9473C31.6192 29.5043 30.9767 28.8952 30.5246 28.1181L29.8627 28.5032C30.3908 29.4107 31.142 30.1186 32.1061 30.6252L32.4622 29.9473ZM30.5246 28.1181C30.0728 27.3416 29.8414 26.4372 29.8414 25.3931H29.0757C29.0757 26.5544 29.3344 27.595 29.8627 28.5032L30.5246 28.1181ZM29.8414 25.3931V20.0865H29.0757V25.3931H29.8414ZM29.8414 20.0865C29.8414 19.0424 30.0728 18.1381 30.5246 17.3616L29.8627 16.9765C29.3344 17.8847 29.0757 18.9253 29.0757 20.0865H29.8414ZM30.5246 17.3616C30.9761 16.5856 31.617 15.9852 32.4577 15.5577L32.1106 14.8751C31.1441 15.3666 30.3914 16.0679 29.8627 16.9765L30.5246 17.3616ZM32.4577 15.5577C33.2987 15.1301 34.2864 14.9101 35.4314 14.9101V14.1444C34.1872 14.1444 33.0768 14.3839 32.1106 14.8751L32.4577 15.5577ZM35.4314 14.9101C36.5622 14.9101 37.5354 15.1229 38.3614 15.5359L38.7038 14.851C37.7533 14.3757 36.659 14.1444 35.4314 14.1444V14.9101ZM38.3685 15.5393C39.2081 15.9378 39.8463 16.5083 40.2953 17.2521L40.9509 16.8563C40.4198 15.9767 39.6643 15.3067 38.6968 14.8475L38.3685 15.5393ZM40.2998 17.2593C40.7617 17.9872 40.9983 18.8408 40.9983 19.8338H41.764C41.764 18.7135 41.4952 17.714 40.9464 16.849L40.2998 17.2593ZM40.9983 19.8338C40.9983 19.8254 40.9998 19.8058 41.0102 19.7808C41.0209 19.7549 41.0369 19.7334 41.0535 19.7182C41.083 19.6911 41.0952 19.7001 41.0426 19.7089L41.1684 20.4642C41.2996 20.4423 41.4496 20.3939 41.571 20.2826C41.7049 20.1599 41.764 19.9975 41.764 19.8338H40.9983ZM41.0826 19.7043L38.3949 19.8652L38.4406 20.6295L41.1284 20.4687L41.0826 19.7043ZM38.4177 19.8645H38.3718V20.6302H38.4177V19.8645ZM38.3718 19.8645C38.3642 19.8645 38.4259 19.864 38.4828 19.9266C38.5334 19.9823 38.525 20.0284 38.525 19.9946H37.7592C37.7592 20.1293 37.789 20.3018 37.9162 20.4417C38.0497 20.5885 38.2263 20.6302 38.3718 20.6302V19.8645ZM38.525 19.9946C38.525 19.0966 38.2418 18.3405 37.6505 17.7671L37.1175 18.3169C37.5369 18.7236 37.7592 19.2693 37.7592 19.9946H38.525ZM37.6547 17.7713C37.0806 17.1971 36.3258 16.924 35.4314 16.924V17.6898C36.1602 17.6898 36.7072 17.9067 37.1133 18.3127L37.6547 17.7713ZM35.4314 16.924C34.5235 16.924 33.7554 17.1958 33.1662 17.7671L33.6993 18.3169C34.1209 17.908 34.6852 17.6898 35.4314 17.6898V16.924ZM33.162 17.7713C32.5879 18.3454 32.3148 19.1002 32.3148 19.9946H33.0805C33.0805 19.2658 33.2975 18.7188 33.7035 18.3127L33.162 17.7713ZM32.3148 19.9946V25.531H33.0805V19.9946H32.3148ZM32.3148 25.531C32.3148 26.4125 32.5893 27.1587 33.162 27.7314L33.7035 27.1899C33.2961 26.7825 33.0805 26.2422 33.0805 25.531H32.3148ZM33.1662 27.7355C33.7554 28.3068 34.5235 28.5786 35.4314 28.5786V27.8129C34.6852 27.8129 34.1209 27.5946 33.6993 27.1858L33.1662 27.7355ZM35.4314 28.5786C36.3258 28.5786 37.0806 28.3055 37.6547 27.7314L37.1133 27.1899C36.7072 27.5959 36.1602 27.8129 35.4314 27.8129V28.5786ZM37.6505 27.7355C38.2403 27.1636 38.525 26.416 38.525 25.531H37.7592C37.7592 26.2386 37.5384 26.7776 37.1175 27.1858L37.6505 27.7355ZM38.525 25.531C38.525 25.5226 38.5262 25.5318 38.5191 25.5513C38.5113 25.5729 38.4956 25.5999 38.4697 25.6237C38.4179 25.6712 38.377 25.6611 38.4177 25.6611V24.8954C38.2747 24.8954 38.096 24.9275 37.9523 25.0592C37.8023 25.1967 37.7592 25.3787 37.7592 25.531H38.525ZM38.4014 25.6608L41.0892 25.7757L41.1219 25.0106L38.4341 24.8958L38.4014 25.6608ZM41.1055 25.776C41.1055 25.776 41.1055 25.776 41.1055 25.776C41.1055 25.776 41.1055 25.776 41.1055 25.776C41.1054 25.776 41.1054 25.776 41.1054 25.776C41.1053 25.776 41.1051 25.776 41.105 25.776C41.1046 25.776 41.1041 25.776 41.1034 25.7759C41.102 25.7758 41.0998 25.7756 41.0971 25.7751C41.0916 25.7742 41.0838 25.7724 41.0744 25.7689C41.0543 25.7613 41.0345 25.7487 41.0186 25.7328L41.56 25.1913C41.4296 25.0609 41.2641 25.0103 41.1055 25.0103V25.776ZM41.0596 25.7684C41.0581 25.7673 41.0418 25.7548 41.0258 25.7267C41.0083 25.6961 40.9983 25.6594 40.9983 25.6229H41.764C41.764 25.4112 41.6499 25.254 41.519 25.1558L41.0596 25.7684ZM40.9983 25.6229C40.9983 26.6158 40.7617 27.4784 40.2981 28.2231L40.9481 28.6278C41.4952 27.7492 41.764 26.7434 41.764 25.6229H40.9983ZM40.2953 28.2276C39.8455 28.9725 39.2057 29.5517 38.3637 29.9656L38.7015 30.6528C39.6666 30.1784 40.4205 29.5018 40.9509 28.6234L40.2953 28.2276ZM38.3614 29.9668C37.5354 30.3798 36.5622 30.5925 35.4314 30.5925V31.3583C36.659 31.3583 37.7533 31.1269 38.7038 30.6517L38.3614 29.9668ZM43.8254 30.7227L43.5191 30.9524L43.5519 30.9962L43.5957 31.029L43.8254 30.7227ZM43.8254 14.8029L43.5547 14.5322L43.5547 14.5322L43.8254 14.8029ZM46.9037 14.8029L46.5974 15.0326L46.6302 15.0764L46.674 15.1092L46.9037 14.8029ZM47.0415 21.5108L46.8703 21.8533L46.9511 21.8937H47.0415V21.5108ZM47.1334 21.4649L47.4041 21.7356L47.4187 21.721L47.4317 21.7049L47.1334 21.4649ZM52.44 14.8718L52.1492 14.6225L52.1417 14.6318L52.44 14.8718ZM56.0466 14.8259L55.6912 14.9681L55.6971 14.9829L55.7042 14.9971L56.0466 14.8259ZM56.0007 15.0556L56.3022 15.2915L56.3112 15.2801L56.3193 15.268L56.0007 15.0556ZM50.8779 21.6027L50.5763 21.3667L50.5716 21.373L50.8779 21.6027ZM50.8549 21.7635L51.1801 21.561L51.1735 21.5511L50.8549 21.7635ZM56.2764 30.47L56.6396 30.3489L56.6253 30.306L56.6014 30.2676L56.2764 30.47ZM52.7386 30.6078L53.0811 30.4366L53.0734 30.4212L53.0643 30.4066L52.7386 30.6078ZM48.6496 23.9918L48.3071 24.1631L48.3148 24.1785L48.3239 24.1931L48.6496 23.9918ZM48.4888 23.9918L48.218 23.7211L48.2028 23.7363L48.1894 23.7531L48.4888 23.9918ZM47.0415 25.8066L46.7422 25.5679L46.7171 25.5994L46.6991 25.6354L47.0415 25.8066ZM46.9037 30.7227L47.1744 30.9934L46.9037 30.7227ZM44.0321 30.4088C44.0321 30.4088 44.0321 30.4088 44.0321 30.4088C44.0321 30.4088 44.0322 30.4088 44.0322 30.4088C44.0322 30.4088 44.0322 30.4088 44.0322 30.4088C44.0322 30.4088 44.0323 30.4088 44.0324 30.4088C44.0326 30.4088 44.0328 30.4088 44.0331 30.4088C44.0338 30.4089 44.0347 30.409 44.0359 30.4091C44.0382 30.4095 44.041 30.4102 44.0441 30.4112C44.0507 30.4134 44.0546 30.416 44.0551 30.4164L43.5957 31.029C43.7232 31.1247 43.8727 31.1745 44.0321 31.1745V30.4088ZM44.1317 30.493C44.1317 30.493 44.1317 30.493 44.1317 30.493C44.1317 30.493 44.1317 30.493 44.1317 30.493C44.1317 30.493 44.1317 30.493 44.1317 30.493C44.1317 30.493 44.1317 30.493 44.1317 30.493C44.1317 30.493 44.1317 30.493 44.1317 30.493C44.1318 30.4931 44.1318 30.4931 44.1318 30.4932C44.1319 30.4933 44.1321 30.4935 44.1323 30.4938C44.1326 30.4944 44.1331 30.4952 44.1336 30.4962C44.1347 30.4983 44.1359 30.5009 44.1369 30.504C44.1379 30.5071 44.1386 30.5099 44.139 30.5122C44.1391 30.5134 44.1392 30.5143 44.1393 30.5149C44.1393 30.5153 44.1393 30.5155 44.1393 30.5157C44.1393 30.5158 44.1393 30.5158 44.1393 30.5159C44.1393 30.5159 44.1393 30.5159 44.1393 30.5159C44.1393 30.5159 44.1393 30.516 44.1393 30.516V30.516C44.1393 30.5159 44.1393 30.516 44.1393 30.516C44.1393 30.5159 44.1393 30.516 44.1393 30.516H43.3736C43.3736 30.6754 43.4234 30.8249 43.5191 30.9524L44.1317 30.493ZM44.1393 30.516V14.9867H43.3736V30.516H44.1393ZM44.1393 14.9867C44.1393 14.9867 44.1393 14.9867 44.1393 14.9867C44.1393 14.9867 44.1393 14.9867 44.1393 14.9867C44.1393 14.9867 44.1393 14.9867 44.1393 14.9867C44.1393 14.9867 44.1393 14.9868 44.1393 14.9868C44.1393 14.9869 44.1393 14.987 44.1393 14.9872C44.1393 14.9876 44.1393 14.9881 44.1392 14.9888C44.1391 14.9902 44.1389 14.9923 44.1384 14.9951C44.1375 15.0006 44.1357 15.0084 44.1322 15.0177C44.1246 15.0379 44.1121 15.0577 44.0961 15.0736L43.5547 14.5322C43.4242 14.6626 43.3736 14.8281 43.3736 14.9867H44.1393ZM44.0961 15.0736C44.0984 15.0714 44.0929 15.0775 44.0785 15.0839C44.0633 15.0906 44.0466 15.0939 44.0321 15.0939V14.3281C43.8404 14.3281 43.6774 14.4094 43.5547 14.5322L44.0961 15.0736ZM44.0321 15.0939H46.7199V14.3281H44.0321V15.0939ZM46.7199 15.0939C46.7058 15.0939 46.6806 15.0907 46.6521 15.0764C46.6235 15.0622 46.6058 15.0439 46.5974 15.0326L47.21 14.5732C47.0917 14.4155 46.917 14.3281 46.7199 14.3281V15.0939ZM46.674 15.1092C46.6627 15.1008 46.6444 15.0831 46.6301 15.0545C46.6159 15.026 46.6127 15.0007 46.6127 14.9867H47.3784C47.3784 14.7896 47.2911 14.6149 47.1334 14.4966L46.674 15.1092ZM46.6127 14.9867V21.4189H47.3784V14.9867H46.6127ZM46.6127 21.4189C46.6127 21.5521 46.6653 21.7508 46.8703 21.8533L47.2127 21.1684C47.2715 21.1978 47.3201 21.2464 47.3495 21.3051C47.3759 21.358 47.3784 21.4018 47.3784 21.4189H46.6127ZM47.0415 21.8937C47.2095 21.8937 47.3318 21.808 47.4041 21.7356L46.8627 21.1941C46.8738 21.183 46.9348 21.1279 47.0415 21.1279V21.8937ZM47.4317 21.7049L52.7383 15.1119L52.1417 14.6318L46.8351 21.2248L47.4317 21.7049ZM52.7307 15.121C52.7452 15.104 52.7543 15.0994 52.757 15.0982C52.7594 15.097 52.7667 15.0939 52.7846 15.0939V14.3281C52.5319 14.3281 52.3119 14.433 52.1493 14.6227L52.7307 15.121ZM52.7846 15.0939H55.8169V14.3281H52.7846V15.0939ZM55.8169 15.0939C55.8426 15.0939 55.8278 15.0986 55.795 15.0822C55.7771 15.0732 55.7555 15.0587 55.7352 15.0369C55.7146 15.0149 55.7002 14.9907 55.6912 14.9681L56.4021 14.6837C56.2863 14.394 56.0073 14.3281 55.8169 14.3281V15.0939ZM55.7042 14.9971C55.6762 14.9411 55.6761 14.8871 55.6827 14.8542C55.688 14.8276 55.6957 14.8229 55.6821 14.8432L56.3193 15.268C56.4075 15.1357 56.5126 14.9017 56.3891 14.6547L55.7042 14.9971ZM55.6992 14.8197L50.5763 21.3668L51.1794 21.8386L56.3022 15.2915L55.6992 14.8197ZM50.5716 21.373C50.5251 21.435 50.4746 21.5233 50.4587 21.6347C50.4412 21.7568 50.4699 21.8763 50.5363 21.9759L51.1735 21.5511C51.2093 21.6048 51.2265 21.6745 51.2167 21.743C51.2084 21.8009 51.1847 21.8317 51.1842 21.8324L50.5716 21.373ZM50.5299 21.9659L55.9514 30.6724L56.6014 30.2676L51.1799 21.5611L50.5299 21.9659ZM55.9132 30.5911C55.9278 30.635 55.9373 30.6653 55.9427 30.6843C55.9455 30.6941 55.9461 30.697 55.9457 30.6952C55.9455 30.6943 55.9444 30.6893 55.9432 30.6815C55.9426 30.6775 55.9417 30.6714 55.941 30.6638C55.9403 30.6565 55.9394 30.6451 55.9394 30.6308H56.7052C56.7052 30.5812 56.6954 30.539 56.6932 30.5291C56.689 30.5101 56.6838 30.491 56.679 30.4739C56.6691 30.4393 56.6556 30.3969 56.6396 30.3489L55.9132 30.5911ZM55.9394 30.6308C55.9394 30.6121 55.9429 30.5773 55.9623 30.5366C55.9826 30.4939 56.013 30.4604 56.0453 30.4378C56.1007 30.399 56.1362 30.4088 56.0926 30.4088V31.1745C56.2021 31.1745 56.3525 31.1575 56.4845 31.0651C56.6413 30.9553 56.7052 30.7882 56.7052 30.6308H55.9394ZM56.0926 30.4088H53.0603V31.1745H56.0926V30.4088ZM53.0603 30.4088C53.0345 30.4088 53.0383 30.4038 53.0549 30.4133C53.0629 30.4178 53.07 30.4236 53.0754 30.4295C53.0807 30.4352 53.0821 30.4385 53.0811 30.4366L52.3962 30.7791C52.4568 30.9003 52.5487 31.0059 52.675 31.0781C52.7988 31.1489 52.9329 31.1745 53.0603 31.1745V30.4088ZM53.0643 30.4066L48.9753 23.7905L48.3239 24.1931L52.413 30.8091L53.0643 30.4066ZM48.992 23.8206C48.9617 23.7599 48.912 23.6913 48.8332 23.6388C48.7521 23.5847 48.663 23.563 48.5807 23.563V24.3288C48.529 24.3288 48.4667 24.3147 48.4085 24.2759C48.3527 24.2387 48.3222 24.1932 48.3071 24.1631L48.992 23.8206ZM48.5807 23.563C48.4127 23.563 48.2904 23.6487 48.218 23.7211L48.7595 24.2626C48.7484 24.2737 48.6874 24.3288 48.5807 24.3288V23.563ZM48.1894 23.7531L46.7422 25.5679L47.3409 26.0454L48.7881 24.2305L48.1894 23.7531ZM46.6991 25.6354C46.6669 25.6997 46.6127 25.8163 46.6127 25.9445H47.3784C47.3784 25.9678 47.3756 25.9849 47.3739 25.9937C47.372 26.0029 47.3703 26.008 47.3703 26.0081C47.3702 26.0085 47.371 26.0061 47.3733 26.0005C47.3757 25.9951 47.3791 25.9876 47.384 25.9779L46.6991 25.6354ZM46.6127 25.9445V30.516H47.3784V25.9445H46.6127ZM46.6127 30.516C46.6127 30.5015 46.6159 30.4848 46.6227 30.4696C46.6291 30.4552 46.6352 30.4497 46.6329 30.452L47.1744 30.9934C47.2972 30.8707 47.3784 30.7077 47.3784 30.516H46.6127ZM46.6329 30.452C46.6489 30.436 46.6687 30.4235 46.6888 30.4159C46.6982 30.4124 46.706 30.4106 46.7115 30.4097C46.7142 30.4092 46.7164 30.409 46.7178 30.4089C46.7185 30.4088 46.719 30.4088 46.7194 30.4088C46.7195 30.4088 46.7197 30.4088 46.7198 30.4088C46.7198 30.4088 46.7198 30.4088 46.7199 30.4088C46.7199 30.4088 46.7199 30.4088 46.7199 30.4088C46.7199 30.4088 46.7199 30.4088 46.7199 30.4088V31.1745C46.8785 31.1745 47.0439 31.1239 47.1744 30.9934L46.6329 30.452ZM46.7199 30.4088H44.0321V31.1745H46.7199V30.4088ZM69.2092 17.4218L69.48 17.6925V17.6925L69.2092 17.4218ZM66.6134 21.373L66.3071 21.6027L66.3399 21.6465L66.3836 21.6793L66.6134 21.373ZM69.2092 28.1039L68.9029 28.3336L68.9358 28.3773L68.9795 28.4102L69.2092 28.1039ZM69.2092 30.7227L69.48 30.9934L69.2092 30.7227ZM58.2055 30.7227L57.8992 30.9524L57.932 30.9962L57.9758 31.029L58.2055 30.7227ZM58.2055 14.8029L57.9348 14.5322L57.9348 14.5322L58.2055 14.8029ZM69.2092 14.8029L68.9029 15.0326L68.9358 15.0764L68.9795 15.1092L69.2092 14.8029ZM68.9183 17.215C68.9183 17.2006 68.9215 17.1839 68.9283 17.1686C68.9347 17.1543 68.9408 17.1487 68.9385 17.151L69.48 17.6925C69.6027 17.5697 69.684 17.4068 69.684 17.215H68.9183ZM68.9385 17.151C68.9545 17.1351 68.9742 17.1225 68.9944 17.1149C69.0134 17.1078 69.0255 17.1078 69.0255 17.1078V17.8735C69.1841 17.8735 69.3495 17.8229 69.48 17.6925L68.9385 17.151ZM69.0255 17.1078H61.4905V17.8735H69.0255V17.1078ZM61.4905 17.1078C61.3932 17.1078 61.2499 17.1324 61.1337 17.2487C61.0174 17.3649 60.9928 17.5082 60.9928 17.6055H61.7586C61.7586 17.6263 61.7531 17.7121 61.6751 17.7901C61.5971 17.8681 61.5113 17.8735 61.4905 17.8735V17.1078ZM60.9928 17.6055V21.1662H61.7586V17.6055H60.9928ZM60.9928 21.1662C60.9928 21.2635 61.0174 21.4068 61.1337 21.5231C61.2499 21.6394 61.3932 21.664 61.4905 21.664V20.8982C61.5113 20.8982 61.5971 20.9037 61.6751 20.9816C61.7531 21.0596 61.7586 21.1455 61.7586 21.1662H60.9928ZM61.4905 21.664H66.4296V20.8982H61.4905V21.664ZM66.4296 21.664C66.4155 21.664 66.3903 21.6608 66.3617 21.6465C66.3332 21.6323 66.3155 21.614 66.3071 21.6027L66.9197 21.1433C66.8014 20.9856 66.6267 20.8982 66.4296 20.8982V21.664ZM66.3836 21.6793C66.3724 21.6708 66.3541 21.6531 66.3398 21.6246C66.3256 21.5961 66.3224 21.5708 66.3224 21.5568H67.0881C67.0881 21.3597 67.0008 21.1849 66.8431 21.0667L66.3836 21.6793ZM66.3224 21.5568V23.7851H67.0881V21.5568H66.3224ZM66.3224 23.7851C66.3224 23.7706 66.3256 23.754 66.3324 23.7387C66.3388 23.7243 66.3449 23.7188 66.3426 23.7211L66.8841 24.2626C67.0069 24.1398 67.0881 23.9769 67.0881 23.7851H66.3224ZM66.3426 23.7211C66.3586 23.7051 66.3783 23.6926 66.3985 23.685C66.4175 23.6779 66.4296 23.6779 66.4296 23.6779V24.4436C66.5882 24.4436 66.7536 24.393 66.8841 24.2626L66.3426 23.7211ZM66.4296 23.6779H61.4905V24.4436H66.4296V23.6779ZM61.4905 23.6779C61.3932 23.6779 61.2499 23.7025 61.1337 23.8187C61.0174 23.935 60.9928 24.0783 60.9928 24.1756H61.7586C61.7586 24.1963 61.7531 24.2822 61.6751 24.3602C61.5971 24.4382 61.5113 24.4436 61.4905 24.4436V23.6779ZM60.9928 24.1756V27.8971H61.7586V24.1756H60.9928ZM60.9928 27.8971C60.9928 27.9944 61.0174 28.1377 61.1337 28.254C61.2499 28.3703 61.3932 28.3948 61.4905 28.3948V27.6291C61.5113 27.6291 61.5971 27.6345 61.6751 27.7125C61.7531 27.7905 61.7586 27.8764 61.7586 27.8971H60.9928ZM61.4905 28.3948H69.0255V27.6291H61.4905V28.3948ZM69.0255 28.3948C69.0114 28.3948 68.9861 28.3917 68.9576 28.3774C68.9291 28.3631 68.9114 28.3448 68.9029 28.3336L69.5155 27.8741C69.3973 27.7165 69.2225 27.6291 69.0255 27.6291V28.3948ZM68.9795 28.4102C68.9683 28.4017 68.95 28.384 68.9357 28.3555C68.9214 28.327 68.9183 28.3017 68.9183 28.2876H69.684C69.684 28.0906 69.5966 27.9158 69.439 27.7976L68.9795 28.4102ZM68.9183 28.2876V30.516H69.684V28.2876H68.9183ZM68.9183 30.516C68.9183 30.5015 68.9215 30.4848 68.9283 30.4696C68.9347 30.4552 68.9408 30.4497 68.9385 30.452L69.48 30.9934C69.6027 30.8707 69.684 30.7077 69.684 30.516H68.9183ZM68.9385 30.452C68.9545 30.436 68.9742 30.4235 68.9944 30.4159C69.0037 30.4124 69.0115 30.4106 69.0171 30.4097C69.0198 30.4092 69.0219 30.409 69.0233 30.4089C69.024 30.4088 69.0246 30.4088 69.0249 30.4088C69.0251 30.4088 69.0252 30.4088 69.0253 30.4088C69.0254 30.4088 69.0254 30.4088 69.0254 30.4088C69.0254 30.4088 69.0254 30.4088 69.0254 30.4088C69.0255 30.4088 69.0255 30.4088 69.0255 30.4088H69.0255V31.1745C69.1841 31.1745 69.3495 31.1239 69.48 30.9934L68.9385 30.452ZM69.0255 30.4088H58.4123V31.1745H69.0255V30.4088ZM58.4123 30.4088C58.4123 30.4088 58.4123 30.4088 58.4123 30.4088C58.4123 30.4088 58.4123 30.4088 58.4123 30.4088C58.4123 30.4088 58.4123 30.4088 58.4123 30.4088C58.4124 30.4088 58.4124 30.4088 58.4125 30.4088C58.4127 30.4088 58.4129 30.4088 58.4133 30.4088C58.4139 30.4089 58.4148 30.409 58.416 30.4091C58.4183 30.4095 58.4212 30.4102 58.4242 30.4112C58.4309 30.4134 58.4347 30.416 58.4352 30.4164L57.9758 31.029C58.1033 31.1247 58.2528 31.1745 58.4123 31.1745V30.4088ZM58.5118 30.493C58.5118 30.493 58.5118 30.493 58.5118 30.493C58.5118 30.493 58.5118 30.493 58.5118 30.493C58.5118 30.493 58.5118 30.493 58.5118 30.493C58.5118 30.493 58.5118 30.493 58.5118 30.493C58.5118 30.493 58.5118 30.493 58.5118 30.493C58.5119 30.4931 58.5119 30.4931 58.512 30.4932C58.5121 30.4933 58.5122 30.4935 58.5124 30.4938C58.5127 30.4944 58.5132 30.4952 58.5137 30.4962C58.5148 30.4983 58.516 30.5009 58.517 30.504C58.5181 30.5071 58.5187 30.5099 58.5191 30.5122C58.5193 30.5134 58.5194 30.5143 58.5194 30.5149C58.5194 30.5153 58.5194 30.5155 58.5195 30.5157C58.5195 30.5158 58.5195 30.5158 58.5195 30.5159C58.5195 30.5159 58.5195 30.5159 58.5195 30.5159C58.5195 30.5159 58.5195 30.516 58.5195 30.516V30.516C58.5195 30.5159 58.5195 30.516 58.5195 30.516C58.5195 30.5159 58.5195 30.516 58.5195 30.516H57.7537C57.7537 30.6754 57.8036 30.8249 57.8992 30.9524L58.5118 30.493ZM58.5195 30.516V14.9867H57.7537V30.516H58.5195ZM58.5195 14.9867C58.5195 14.9867 58.5195 14.9867 58.5195 14.9867C58.5195 14.9867 58.5195 14.9867 58.5195 14.9867C58.5195 14.9867 58.5195 14.9867 58.5195 14.9867C58.5195 14.9867 58.5195 14.9868 58.5195 14.9868C58.5195 14.9869 58.5195 14.987 58.5194 14.9872C58.5194 14.9876 58.5194 14.9881 58.5193 14.9888C58.5192 14.9902 58.519 14.9923 58.5186 14.9951C58.5176 15.0006 58.5158 15.0084 58.5123 15.0177C58.5047 15.0379 58.4922 15.0577 58.4762 15.0736L57.9348 14.5322C57.8043 14.6626 57.7537 14.8281 57.7537 14.9867H58.5195ZM58.4762 15.0736C58.4785 15.0714 58.473 15.0775 58.4586 15.0839C58.4434 15.0906 58.4267 15.0939 58.4123 15.0939V14.3281C58.2205 14.3281 58.0576 14.4094 57.9348 14.5322L58.4762 15.0736ZM58.4123 15.0939H69.0255V14.3281H58.4123V15.0939ZM69.0255 15.0939C69.0114 15.0939 68.9861 15.0907 68.9576 15.0764C68.9291 15.0622 68.9114 15.0439 68.9029 15.0326L69.5155 14.5732C69.3973 14.4155 69.2225 14.3281 69.0255 14.3281V15.0939ZM68.9795 15.1092C68.9683 15.1008 68.95 15.0831 68.9357 15.0545C68.9214 15.026 68.9183 15.0007 68.9183 14.9867H69.684C69.684 14.7896 69.5966 14.6149 69.439 14.4966L68.9795 15.1092ZM68.9183 14.9867V17.215H69.684V14.9867H68.9183ZM82.8315 14.8029L82.5252 15.0326L82.558 15.0764L82.6017 15.1092L82.8315 14.8029ZM78.3289 30.7227L78.0581 30.452L78.3289 30.7227ZM75.2506 30.7227L74.9443 30.9524L74.9771 30.9962L75.0209 31.029L75.2506 30.7227ZM70.8629 17.4447L70.5566 17.6744L70.5894 17.7182L70.6332 17.751L70.8629 17.4447ZM70.8629 14.8029L70.5921 14.5322V14.5322L70.8629 14.8029ZM82.6477 15.0939C82.6336 15.0939 82.6084 15.0907 82.5798 15.0764C82.5513 15.0622 82.5336 15.0439 82.5252 15.0326L83.1377 14.5732C83.0195 14.4155 82.8448 14.3281 82.6477 14.3281V15.0939ZM82.6017 15.1092C82.5905 15.1008 82.5722 15.0831 82.5579 15.0545C82.5436 15.026 82.5405 15.0007 82.5405 14.9867H83.3062C83.3062 14.7896 83.2188 14.6149 83.0612 14.4966L82.6017 15.1092ZM82.5405 14.9867V17.238H83.3062V14.9867H82.5405ZM82.5405 17.238C82.5405 17.2235 82.5437 17.2069 82.5505 17.1916C82.5569 17.1772 82.563 17.1717 82.5607 17.174L83.1022 17.7155C83.225 17.5927 83.3062 17.4298 83.3062 17.238H82.5405ZM82.5607 17.174C82.5767 17.158 82.5964 17.1455 82.6166 17.1379C82.626 17.1344 82.6338 17.1326 82.6393 17.1317C82.642 17.1312 82.6441 17.131 82.6455 17.1309C82.6462 17.1308 82.6468 17.1308 82.6471 17.1308C82.6473 17.1308 82.6474 17.1308 82.6475 17.1308C82.6476 17.1308 82.6476 17.1308 82.6476 17.1308C82.6476 17.1308 82.6477 17.1308 82.6477 17.1308C82.6477 17.1308 82.6477 17.1308 82.6477 17.1308V17.8965C82.8063 17.8965 82.9717 17.8459 83.1022 17.7155L82.5607 17.174ZM82.6477 17.1308H78.5356V17.8965H82.6477V17.1308ZM78.5356 17.1308C78.4383 17.1308 78.295 17.1554 78.1787 17.2716C78.0625 17.3879 78.0379 17.5312 78.0379 17.6285H78.8036C78.8036 17.6492 78.7982 17.7351 78.7202 17.8131C78.6422 17.8911 78.5564 17.8965 78.5356 17.8965V17.1308ZM78.0379 17.6285V30.516H78.8036V17.6285H78.0379ZM78.0379 30.516C78.0379 30.5015 78.0411 30.4848 78.0479 30.4696C78.0543 30.4552 78.0604 30.4497 78.0581 30.452L78.5996 30.9934C78.7224 30.8707 78.8036 30.7077 78.8036 30.516H78.0379ZM78.0581 30.452C78.0741 30.436 78.0939 30.4235 78.114 30.4159C78.1234 30.4124 78.1312 30.4106 78.1367 30.4097C78.1394 30.4092 78.1415 30.409 78.143 30.4089C78.1437 30.4088 78.1442 30.4088 78.1446 30.4088C78.1447 30.4088 78.1449 30.4088 78.145 30.4088C78.145 30.4088 78.145 30.4088 78.1451 30.4088C78.1451 30.4088 78.1451 30.4088 78.1451 30.4088C78.1451 30.4088 78.1451 30.4088 78.1451 30.4088V31.1745C78.3037 31.1745 78.4692 31.1239 78.5996 30.9934L78.0581 30.452ZM78.1451 30.4088H75.4573V31.1745H78.1451V30.4088ZM75.4573 30.4088C75.458 30.4088 75.4626 30.409 75.4693 30.4112C75.476 30.4134 75.4798 30.416 75.4803 30.4164L75.0209 31.029C75.1484 31.1247 75.2979 31.1745 75.4573 31.1745V30.4088ZM75.5569 30.493C75.5569 30.493 75.5569 30.493 75.5569 30.493C75.5569 30.493 75.5569 30.493 75.5569 30.493C75.5569 30.493 75.5569 30.493 75.5569 30.493C75.5569 30.493 75.5569 30.493 75.5569 30.493C75.5569 30.493 75.5569 30.493 75.5569 30.493C75.557 30.4931 75.557 30.4931 75.557 30.4932C75.5571 30.4933 75.5573 30.4935 75.5574 30.4938C75.5578 30.4944 75.5583 30.4952 75.5588 30.4962C75.5599 30.4983 75.5611 30.5009 75.5621 30.504C75.5643 30.5107 75.5645 30.5153 75.5645 30.516H74.7988C74.7988 30.6754 74.8486 30.8249 74.9443 30.9524L75.5569 30.493ZM75.5645 30.516V17.6285H74.7988V30.516H75.5645ZM75.5645 17.6285C75.5645 17.5312 75.54 17.3879 75.4237 17.2716C75.3074 17.1554 75.1641 17.1308 75.0668 17.1308V17.8965C75.0461 17.8965 74.9602 17.8911 74.8822 17.8131C74.8042 17.7351 74.7988 17.6492 74.7988 17.6285H75.5645ZM75.0668 17.1308H71.0696V17.8965H75.0668V17.1308ZM71.0696 17.1308C71.0703 17.1308 71.0749 17.131 71.0816 17.1332C71.0882 17.1354 71.0921 17.1381 71.0926 17.1384L70.6332 17.751C70.7607 17.8467 70.9102 17.8965 71.0696 17.8965V17.1308ZM71.1692 17.215C71.1692 17.215 71.1692 17.215 71.1692 17.215C71.1692 17.215 71.1692 17.215 71.1692 17.215C71.1692 17.215 71.1692 17.215 71.1692 17.2151C71.1692 17.2151 71.1693 17.2151 71.1693 17.2152C71.1694 17.2154 71.1696 17.2156 71.1697 17.2158C71.1701 17.2164 71.1706 17.2172 71.1711 17.2182C71.1722 17.2203 71.1734 17.223 71.1744 17.226C71.1766 17.2327 71.1768 17.2373 71.1768 17.238H70.4111C70.4111 17.3974 70.4609 17.5469 70.5566 17.6744L71.1692 17.215ZM71.1768 17.238V14.9867H70.4111V17.238H71.1768ZM71.1768 14.9867C71.1768 14.9867 71.1768 14.9867 71.1768 14.9867C71.1768 14.9867 71.1768 14.9867 71.1768 14.9867C71.1768 14.9867 71.1768 14.9867 71.1768 14.9867C71.1768 14.9867 71.1768 14.9868 71.1768 14.9868C71.1768 14.9869 71.1768 14.987 71.1768 14.9872C71.1768 14.9876 71.1768 14.9881 71.1767 14.9888C71.1766 14.9902 71.1764 14.9923 71.1759 14.9951C71.175 15.0006 71.1732 15.0084 71.1697 15.0177C71.1621 15.0379 71.1496 15.0577 71.1336 15.0736L70.5921 14.5322C70.4617 14.6626 70.4111 14.8281 70.4111 14.9867H71.1768ZM71.1336 15.0736C71.1359 15.0714 71.1304 15.0775 71.116 15.0839C71.1008 15.0906 71.0841 15.0939 71.0696 15.0939V14.3281C70.8778 14.3281 70.7149 14.4094 70.5921 14.5322L71.1336 15.0736ZM71.0696 15.0939H82.6477V14.3281H71.0696V15.0939ZM96.0396 17.4218L96.3103 17.6925L96.3103 17.6925L96.0396 17.4218ZM93.4667 21.373L93.1604 21.6027L93.1932 21.6465L93.237 21.6793L93.4667 21.373ZM88.1371 30.7227L88.4079 30.9934L88.1371 30.7227ZM85.0589 30.7227L84.7526 30.9524L84.7854 30.9962L84.8291 31.029L85.0589 30.7227ZM85.0589 14.8029L84.7881 14.5322V14.5322L85.0589 14.8029ZM96.0396 14.8029L95.7333 15.0326L95.7661 15.0764L95.8099 15.1092L96.0396 14.8029ZM95.7486 17.215C95.7486 17.2006 95.7519 17.1839 95.7587 17.1686C95.765 17.1543 95.7712 17.1487 95.7689 17.151L96.3103 17.6925C96.4331 17.5697 96.5144 17.4068 96.5144 17.215H95.7486ZM95.7689 17.151C95.7848 17.1351 95.8046 17.1225 95.8248 17.1149C95.8438 17.1078 95.8559 17.1078 95.8558 17.1078V17.8735C96.0144 17.8735 96.1799 17.8229 96.3103 17.6925L95.7689 17.151ZM95.8558 17.1078H88.3439V17.8735H95.8558V17.1078ZM88.3439 17.1078C88.2466 17.1078 88.1033 17.1324 87.987 17.2487C87.8708 17.3649 87.8462 17.5082 87.8462 17.6055H88.6119C88.6119 17.6263 88.6065 17.7121 88.5285 17.7901C88.4505 17.8681 88.3646 17.8735 88.3439 17.8735V17.1078ZM87.8462 17.6055V21.1662H88.6119V17.6055H87.8462ZM87.8462 21.1662C87.8462 21.2635 87.8708 21.4068 87.987 21.5231C88.1033 21.6394 88.2466 21.664 88.3439 21.664V20.8982C88.3646 20.8982 88.4505 20.9037 88.5285 20.9816C88.6065 21.0596 88.6119 21.1455 88.6119 21.1662H87.8462ZM88.3439 21.664H93.2829V20.8982H88.3439V21.664ZM93.2829 21.664C93.2689 21.664 93.2436 21.6608 93.2151 21.6465C93.1866 21.6323 93.1689 21.614 93.1604 21.6027L93.773 21.1433C93.6548 20.9856 93.48 20.8982 93.2829 20.8982V21.664ZM93.237 21.6793C93.2257 21.6708 93.2075 21.6531 93.1932 21.6246C93.1789 21.5961 93.1757 21.5708 93.1757 21.5568H93.9415C93.9415 21.3597 93.8541 21.1849 93.6964 21.0667L93.237 21.6793ZM93.1757 21.5568V23.7851H93.9415V21.5568H93.1757ZM93.1757 23.7851C93.1757 23.7706 93.179 23.754 93.1858 23.7387C93.1921 23.7243 93.1983 23.7188 93.196 23.7211L93.7374 24.2626C93.8602 24.1398 93.9415 23.9769 93.9415 23.7851H93.1757ZM93.196 23.7211C93.2119 23.7051 93.2317 23.6926 93.2519 23.685C93.2709 23.6779 93.283 23.6779 93.2829 23.6779V24.4436C93.4415 24.4436 93.607 24.393 93.7374 24.2626L93.196 23.7211ZM93.2829 23.6779H88.3439V24.4436H93.2829V23.6779ZM88.3439 23.6779C88.2466 23.6779 88.1033 23.7025 87.987 23.8187C87.8708 23.935 87.8462 24.0783 87.8462 24.1756H88.6119C88.6119 24.1963 88.6065 24.2822 88.5285 24.3602C88.4505 24.4382 88.3646 24.4436 88.3439 24.4436V23.6779ZM87.8462 24.1756V30.516H88.6119V24.1756H87.8462ZM87.8462 30.516C87.8462 30.5015 87.8494 30.4848 87.8562 30.4696C87.8626 30.4552 87.8687 30.4497 87.8664 30.452L88.4079 30.9934C88.5307 30.8707 88.6119 30.7077 88.6119 30.516H87.8462ZM87.8664 30.452C87.8824 30.436 87.9021 30.4235 87.9223 30.4159C87.9317 30.4124 87.9395 30.4106 87.945 30.4097C87.9477 30.4092 87.9498 30.409 87.9512 30.4089C87.9519 30.4088 87.9525 30.4088 87.9528 30.4088C87.953 30.4088 87.9531 30.4088 87.9532 30.4088C87.9533 30.4088 87.9533 30.4088 87.9533 30.4088C87.9533 30.4088 87.9534 30.4088 87.9534 30.4088C87.9534 30.4088 87.9534 30.4088 87.9534 30.4088V31.1745C88.112 31.1745 88.2774 31.1239 88.4079 30.9934L87.8664 30.452ZM87.9534 30.4088H85.2656V31.1745H87.9534V30.4088ZM85.2656 30.4088C85.2656 30.4088 85.2656 30.4088 85.2656 30.4088C85.2656 30.4088 85.2657 30.4088 85.2657 30.4088C85.2657 30.4088 85.2658 30.4088 85.2659 30.4088C85.266 30.4088 85.2663 30.4088 85.2666 30.4088C85.2673 30.4089 85.2682 30.409 85.2693 30.4091C85.2717 30.4095 85.2745 30.4102 85.2776 30.4112C85.2842 30.4134 85.2881 30.416 85.2886 30.4164L84.8291 31.029C84.9567 31.1247 85.1062 31.1745 85.2656 31.1745V30.4088ZM85.3652 30.493C85.3651 30.493 85.3652 30.493 85.3652 30.493C85.3651 30.493 85.3652 30.493 85.3652 30.493C85.3652 30.493 85.3652 30.493 85.3652 30.493C85.3652 30.493 85.3652 30.493 85.3652 30.493C85.3652 30.493 85.3652 30.493 85.3652 30.493C85.3652 30.4931 85.3653 30.4931 85.3653 30.4932C85.3654 30.4933 85.3655 30.4935 85.3657 30.4938C85.3661 30.4944 85.3665 30.4952 85.3671 30.4962C85.3682 30.4983 85.3694 30.5009 85.3704 30.504C85.3714 30.5071 85.3721 30.5099 85.3724 30.5122C85.3726 30.5134 85.3727 30.5143 85.3728 30.5149C85.3728 30.5153 85.3728 30.5155 85.3728 30.5157C85.3728 30.5158 85.3728 30.5158 85.3728 30.5159C85.3728 30.5159 85.3728 30.5159 85.3728 30.5159C85.3728 30.5159 85.3728 30.516 85.3728 30.516V30.516C85.3728 30.5159 85.3728 30.516 85.3728 30.516C85.3728 30.5159 85.3728 30.516 85.3728 30.516H84.6071C84.6071 30.6754 84.6569 30.8249 84.7526 30.9524L85.3652 30.493ZM85.3728 30.516V14.9867H84.6071V30.516H85.3728ZM85.3728 14.9867C85.3728 14.9867 85.3728 14.9867 85.3728 14.9867C85.3728 14.9867 85.3728 14.9867 85.3728 14.9867C85.3728 14.9867 85.3728 14.9867 85.3728 14.9867C85.3728 14.9867 85.3728 14.9868 85.3728 14.9868C85.3728 14.9869 85.3728 14.987 85.3728 14.9872C85.3728 14.9876 85.3728 14.9881 85.3727 14.9888C85.3726 14.9902 85.3724 14.9923 85.3719 14.9951C85.371 15.0006 85.3692 15.0084 85.3657 15.0177C85.3581 15.0379 85.3455 15.0577 85.3296 15.0736L84.7881 14.5322C84.6577 14.6626 84.6071 14.8281 84.6071 14.9867H85.3728ZM85.3296 15.0736C85.3319 15.0714 85.3264 15.0775 85.312 15.0839C85.2967 15.0906 85.28 15.0939 85.2656 15.0939V14.3281C85.0738 14.3281 84.9109 14.4094 84.7881 14.5322L85.3296 15.0736ZM85.2656 15.0939H95.8558V14.3281H85.2656V15.0939ZM95.8558 15.0939C95.8418 15.0939 95.8165 15.0907 95.788 15.0764C95.7595 15.0622 95.7418 15.0439 95.7333 15.0326L96.3459 14.5732C96.2277 14.4155 96.0529 14.3281 95.8558 14.3281V15.0939ZM95.8099 15.1092C95.7986 15.1008 95.7803 15.0831 95.7661 15.0545C95.7518 15.026 95.7486 15.0007 95.7486 14.9867H96.5144C96.5144 14.7896 96.427 14.6149 96.2693 14.4966L95.8099 15.1092ZM95.7486 14.9867V17.215H96.5144V14.9867H95.7486ZM97.9135 30.7227L97.6072 30.9524L97.64 30.9962L97.6837 31.029L97.9135 30.7227ZM97.9135 14.8029L97.6427 14.5322V14.5322L97.9135 14.8029ZM100.992 14.8029L100.685 15.0326L100.718 15.0764L100.762 15.1092L100.992 14.8029ZM108.894 28.1039L108.588 28.3336L108.621 28.3773L108.665 28.4102L108.894 28.1039ZM108.894 30.7227L109.165 30.9934L109.165 30.9934L108.894 30.7227ZM98.1202 30.4088C98.1202 30.4088 98.1202 30.4088 98.1202 30.4088C98.1202 30.4088 98.1203 30.4088 98.1203 30.4088C98.1203 30.4088 98.1204 30.4088 98.1205 30.4088C98.1207 30.4088 98.1209 30.4088 98.1212 30.4088C98.1219 30.4089 98.1228 30.409 98.1239 30.4091C98.1263 30.4095 98.1291 30.4102 98.1322 30.4112C98.1388 30.4134 98.1427 30.416 98.1432 30.4164L97.6837 31.029C97.8113 31.1247 97.9608 31.1745 98.1202 31.1745V30.4088ZM98.2198 30.493C98.2197 30.493 98.2198 30.493 98.2198 30.493C98.2197 30.493 98.2198 30.493 98.2198 30.493C98.2198 30.493 98.2198 30.493 98.2198 30.493C98.2198 30.493 98.2198 30.493 98.2198 30.493C98.2198 30.493 98.2198 30.493 98.2198 30.493C98.2198 30.4931 98.2199 30.4931 98.2199 30.4932C98.22 30.4933 98.2202 30.4935 98.2203 30.4938C98.2207 30.4944 98.2212 30.4952 98.2217 30.4962C98.2228 30.4983 98.224 30.5009 98.225 30.504C98.226 30.5071 98.2267 30.5099 98.2271 30.5122C98.2272 30.5134 98.2273 30.5143 98.2274 30.5149C98.2274 30.5153 98.2274 30.5155 98.2274 30.5157C98.2274 30.5158 98.2274 30.5158 98.2274 30.5159C98.2274 30.5159 98.2274 30.5159 98.2274 30.5159C98.2274 30.5159 98.2274 30.516 98.2274 30.516V30.516C98.2274 30.5159 98.2274 30.516 98.2274 30.516C98.2274 30.5159 98.2274 30.516 98.2274 30.516H97.4617C97.4617 30.6754 97.5115 30.8249 97.6072 30.9524L98.2198 30.493ZM98.2274 30.516V14.9867H97.4617V30.516H98.2274ZM98.2274 14.9867C98.2274 14.9867 98.2274 14.9867 98.2274 14.9867C98.2274 14.9867 98.2274 14.9867 98.2274 14.9867C98.2274 14.9867 98.2274 14.9867 98.2274 14.9867C98.2274 14.9867 98.2274 14.9868 98.2274 14.9868C98.2274 14.9869 98.2274 14.987 98.2274 14.9872C98.2274 14.9876 98.2274 14.9881 98.2273 14.9888C98.2272 14.9902 98.227 14.9923 98.2265 14.9951C98.2256 15.0006 98.2238 15.0084 98.2203 15.0177C98.2127 15.0379 98.2002 15.0577 98.1842 15.0736L97.6427 14.5322C97.5123 14.6626 97.4617 14.8281 97.4617 14.9867H98.2274ZM98.1842 15.0736C98.1865 15.0714 98.181 15.0775 98.1666 15.0839C98.1513 15.0906 98.1347 15.0939 98.1202 15.0939V14.3281C97.9284 14.3281 97.7655 14.4094 97.6427 14.5322L98.1842 15.0736ZM98.1202 15.0939H100.808V14.3281H98.1202V15.0939ZM100.808 15.0939C100.794 15.0939 100.769 15.0907 100.74 15.0764C100.712 15.0622 100.694 15.0439 100.685 15.0326L101.298 14.5732C101.18 14.4155 101.005 14.3281 100.808 14.3281V15.0939ZM100.762 15.1092C100.751 15.1008 100.732 15.0831 100.718 15.0545C100.704 15.026 100.701 15.0007 100.701 14.9867H101.467C101.467 14.7896 101.379 14.6149 101.221 14.4966L100.762 15.1092ZM100.701 14.9867V27.8971H101.467V14.9867H100.701ZM100.701 27.8971C100.701 27.9944 100.725 28.1377 100.842 28.254C100.958 28.3703 101.101 28.3948 101.199 28.3948V27.6291C101.219 27.6291 101.305 27.6345 101.383 27.7125C101.461 27.7905 101.467 27.8764 101.467 27.8971H100.701ZM101.199 28.3948H108.71V27.6291H101.199V28.3948ZM108.71 28.3948C108.696 28.3948 108.671 28.3917 108.643 28.3774C108.614 28.3631 108.596 28.3448 108.588 28.3336L109.201 27.8741C109.082 27.7165 108.908 27.6291 108.71 27.6291V28.3948ZM108.665 28.4102C108.653 28.4017 108.635 28.384 108.621 28.3555C108.606 28.327 108.603 28.3017 108.603 28.2876H109.369C109.369 28.0906 109.282 27.9158 109.124 27.7976L108.665 28.4102ZM108.603 28.2876V30.516H109.369V28.2876H108.603ZM108.603 30.516C108.603 30.5015 108.606 30.4848 108.613 30.4696C108.62 30.4552 108.626 30.4497 108.623 30.452L109.165 30.9934C109.288 30.8707 109.369 30.7077 109.369 30.516H108.603ZM108.623 30.452C108.639 30.436 108.659 30.4235 108.679 30.4159C108.689 30.4124 108.697 30.4106 108.702 30.4097C108.705 30.4092 108.707 30.409 108.708 30.4089C108.709 30.4088 108.71 30.4088 108.71 30.4088C108.71 30.4088 108.71 30.4088 108.71 30.4088C108.71 30.4088 108.71 30.4088 108.71 30.4088C108.71 30.4088 108.71 30.4088 108.71 30.4088H108.71V31.1745C108.869 31.1745 109.035 31.1239 109.165 30.9934L108.623 30.452ZM108.71 30.4088H98.1202V31.1745H108.71V30.4088ZM113.361 30.3092L113.179 30.6458L113.181 30.647L113.361 30.3092ZM111.248 28.2647L110.915 28.454L110.916 28.4565L111.248 28.2647ZM111.248 17.2839L111.579 17.4758L111.248 17.2839ZM113.361 15.2624L113.539 15.6013L113.541 15.6002L113.361 15.2624ZM119.702 15.2624L119.519 15.599L119.526 15.6025L119.702 15.2624ZM121.838 17.2839L121.507 17.4758L121.838 17.2839ZM119.702 30.3322L119.88 30.6711L119.882 30.67L119.702 30.3322ZM118.576 27.4606L118.301 27.1939L118.576 27.4606ZM118.576 18.1339L118.294 18.3927L118.301 18.4007L118.576 18.1339ZM114.487 18.1339L114.209 17.871L114.208 17.8712L114.487 18.1339ZM114.487 27.4606L114.208 27.7233L114.212 27.7274L114.487 27.4606ZM116.531 30.6614C115.39 30.6614 114.397 30.4278 113.541 29.9714L113.181 30.647C114.163 31.1708 115.283 31.4272 116.531 31.4272V30.6614ZM113.544 29.9727C112.701 29.5155 112.049 28.8836 111.579 28.0728L110.916 28.4565C111.458 29.3917 112.214 30.1227 113.179 30.6458L113.544 29.9727ZM111.581 28.0753C111.112 27.2517 110.873 26.3 110.873 25.2094H110.107C110.107 26.416 110.373 27.5012 110.915 28.454L111.581 28.0753ZM110.873 25.2094V20.2933H110.107V25.2094H110.873ZM110.873 20.2933C110.873 19.2189 111.112 18.2835 111.579 17.4758L110.916 17.0921C110.373 18.0303 110.107 19.1011 110.107 20.2933H110.873ZM111.579 17.4758C112.048 16.6661 112.699 16.0429 113.539 15.6013L113.183 14.9234C112.216 15.4314 111.458 16.1558 110.916 17.0921L111.579 17.4758ZM113.541 15.6002C114.397 15.1438 115.39 14.9101 116.531 14.9101V14.1444C115.283 14.1444 114.163 14.4008 113.181 14.9245L113.541 15.6002ZM116.531 14.9101C117.689 14.9101 118.681 15.1442 119.519 15.5989L119.884 14.9258C118.915 14.4004 117.794 14.1444 116.531 14.1444V14.9101ZM119.526 15.6025C120.382 16.0446 121.039 16.6678 121.507 17.4758L122.169 17.0921C121.626 16.1542 120.859 15.4296 119.877 14.9222L119.526 15.6025ZM121.507 17.4758C121.974 18.2835 122.213 19.2189 122.213 20.2933H122.979C122.979 19.1011 122.713 18.0303 122.169 17.0921L121.507 17.4758ZM122.213 20.2933V25.2094H122.979V20.2933H122.213ZM122.213 25.2094C122.213 26.3 121.974 27.2517 121.505 28.0753L122.171 28.454C122.713 27.5012 122.979 26.416 122.979 25.2094H122.213ZM121.505 28.0753C121.036 28.8994 120.378 29.5377 119.521 29.9944L119.882 30.67C120.863 30.1465 121.629 29.4065 122.171 28.454L121.505 28.0753ZM119.524 29.9932C118.684 30.4342 117.691 30.6614 116.531 30.6614V31.4272C117.792 31.4272 118.912 31.1796 119.88 30.6711L119.524 29.9932ZM116.531 28.6475C117.463 28.6475 118.248 28.3474 118.851 27.7274L118.301 27.1939C117.862 27.6459 117.285 27.8818 116.531 27.8818V28.6475ZM118.851 27.7274C119.454 27.1067 119.74 26.292 119.74 25.3242H118.974C118.974 26.1329 118.74 26.7425 118.301 27.1939L118.851 27.7274ZM119.74 25.3242V20.2703H118.974V25.3242H119.74ZM119.74 20.2703C119.74 19.3025 119.454 18.4878 118.851 17.8671L118.301 18.4007C118.74 18.852 118.974 19.4616 118.974 20.2703H119.74ZM118.858 17.8752C118.269 17.2328 117.479 16.924 116.531 16.924V17.6898C117.299 17.6898 117.872 17.9323 118.294 18.3926L118.858 17.8752ZM116.531 16.924C115.597 16.924 114.81 17.2342 114.209 17.871L114.765 18.3968C115.205 17.9309 115.782 17.6898 116.531 17.6898V16.924ZM114.208 17.8712C113.623 18.4924 113.346 19.3057 113.346 20.2703H114.112C114.112 19.4584 114.34 18.8474 114.765 18.3965L114.208 17.8712ZM113.346 20.2703V25.3242H114.112V20.2703H113.346ZM113.346 25.3242C113.346 26.2889 113.623 27.1021 114.208 27.7233L114.765 27.198C114.34 26.7471 114.112 26.1361 114.112 25.3242H113.346ZM114.212 27.7274C114.815 28.3474 115.6 28.6475 116.531 28.6475V27.8818C115.778 27.8818 115.201 27.6459 114.762 27.1939L114.212 27.7274ZM127.982 30.5619L127.611 30.6588L127.615 30.6719L127.982 30.5619ZM123.916 15.0097L123.544 15.1025L123.545 15.1065L123.916 15.0097ZM123.893 14.9178H123.51V14.9649L123.521 15.0106L123.893 14.9178ZM127.293 14.9407L127.666 14.8537L127.663 14.8421L127.659 14.8307L127.293 14.9407ZM129.475 24.2905L129.102 24.3775L129.104 24.3833L129.475 24.2905ZM129.613 24.2905L129.984 24.3833L129.986 24.3751L129.613 24.2905ZM131.726 14.9637L131.357 14.863L131.355 14.871L131.353 14.8791L131.726 14.9637ZM135.126 14.9407L135.498 14.8494L135.496 14.84L135.493 14.8307L135.126 14.9407ZM137.423 24.2905L137.052 24.3818L137.055 24.3969L137.06 24.4115L137.423 24.2905ZM137.492 24.3824L137.321 24.7248L137.402 24.7652H137.492V24.3824ZM137.561 24.2905L137.933 24.3833L137.935 24.3751L137.561 24.2905ZM139.675 14.9637L139.305 14.863L139.303 14.871L139.301 14.8791L139.675 14.9637ZM142.937 15.0097L143.309 15.0998L143.31 15.0958L142.937 15.0097ZM139.169 30.5619L139.536 30.6719L139.539 30.6621L139.541 30.652L139.169 30.5619ZM135.815 30.5619L135.443 30.6497L135.445 30.6609L135.449 30.6719L135.815 30.5619ZM133.472 20.6149L133.845 20.5271L133.844 20.522L133.472 20.6149ZM133.334 20.6149L132.963 20.522L132.96 20.5327L133.334 20.6149ZM131.152 30.5389L130.778 30.4566L130.775 30.4704L131.152 30.5389ZM128.303 30.4088C128.277 30.4088 128.292 30.4031 128.319 30.4226C128.332 30.4317 128.341 30.442 128.346 30.45C128.351 30.4574 128.351 30.4595 128.349 30.4519L127.615 30.6719C127.657 30.8119 127.738 30.9483 127.874 31.0457C128.009 31.1419 128.162 31.1745 128.303 31.1745V30.4088ZM128.352 30.4651L124.286 14.9128L123.545 15.1065L127.611 30.6587L128.352 30.4651ZM124.287 14.9168L124.264 14.8249L123.521 15.0106L123.544 15.1025L124.287 14.9168ZM124.276 14.9178C124.276 14.9216 124.275 14.9424 124.263 14.9718C124.25 15.0035 124.228 15.0347 124.198 15.059C124.143 15.104 124.104 15.0939 124.146 15.0939V14.3281C124.019 14.3281 123.853 14.3525 123.714 14.4664C123.56 14.5923 123.51 14.7673 123.51 14.9178H124.276ZM124.146 15.0939H126.994V14.3281H124.146V15.0939ZM126.994 15.0939C127.001 15.0939 126.997 15.0947 126.988 15.0918C126.977 15.0886 126.964 15.0824 126.95 15.0719C126.921 15.0494 126.92 15.03 126.926 15.0508L127.659 14.8307C127.62 14.6984 127.546 14.5641 127.417 14.465C127.287 14.3647 127.136 14.3281 126.994 14.3281V15.0939ZM126.92 15.0278L129.102 24.3775L129.848 24.2034L127.666 14.8537L126.92 15.0278ZM129.104 24.3833C129.117 24.4354 129.142 24.5149 129.197 24.5891C129.261 24.6741 129.378 24.7652 129.544 24.7652V23.9995C129.604 23.9995 129.662 24.0152 129.712 24.0442C129.761 24.0717 129.792 24.1053 129.81 24.1297C129.843 24.1732 129.849 24.2068 129.847 24.1976L129.104 24.3833ZM129.544 24.7652C129.71 24.7652 129.827 24.6741 129.89 24.5891C129.946 24.5149 129.971 24.4354 129.984 24.3833L129.241 24.1976C129.239 24.2068 129.245 24.1732 129.278 24.1297C129.296 24.1053 129.327 24.0717 129.376 24.0442C129.426 24.0152 129.484 23.9995 129.544 23.9995V24.7652ZM129.986 24.3751L132.1 15.0483L131.353 14.8791L129.24 24.2059L129.986 24.3751ZM132.096 15.0645C132.105 15.0301 132.109 15.0442 132.083 15.0665C132.07 15.0776 132.055 15.0855 132.041 15.09C132.028 15.0943 132.022 15.0939 132.025 15.0939V14.3281C131.874 14.3281 131.719 14.3714 131.588 14.4819C131.462 14.5885 131.394 14.7289 131.357 14.863L132.096 15.0645ZM132.025 15.0939H134.805V14.3281H132.025V15.0939ZM134.805 15.0939C134.831 15.0939 134.816 15.0996 134.789 15.08C134.776 15.0709 134.767 15.0606 134.762 15.0526C134.757 15.0453 134.757 15.0432 134.76 15.0508L135.493 14.8307C135.451 14.6907 135.37 14.5544 135.234 14.4569C135.099 14.3608 134.946 14.3281 134.805 14.3281V15.0939ZM134.754 15.0321L137.052 24.3818L137.795 24.1991L135.498 14.8494L134.754 15.0321ZM137.06 24.4115C137.094 24.5135 137.168 24.6481 137.321 24.7248L137.664 24.0399C137.756 24.086 137.783 24.1593 137.787 24.1694L137.06 24.4115ZM137.492 24.7652C137.658 24.7652 137.775 24.6741 137.839 24.5891C137.895 24.5149 137.92 24.4354 137.933 24.3833L137.19 24.1976C137.188 24.2068 137.194 24.1732 137.226 24.1297C137.245 24.1053 137.276 24.0717 137.324 24.0442C137.375 24.0152 137.433 23.9995 137.492 23.9995V24.7652ZM137.935 24.3751L140.048 15.0483L139.301 14.8791L137.188 24.2059L137.935 24.3751ZM140.044 15.0645C140.054 15.0301 140.058 15.0442 140.031 15.0665C140.018 15.0776 140.003 15.0855 139.99 15.09C139.977 15.0943 139.97 15.0939 139.973 15.0939V14.3281C139.823 14.3281 139.667 14.3714 139.537 14.4819C139.411 14.5885 139.342 14.7289 139.305 14.863L140.044 15.0645ZM139.973 15.0939H142.684V14.3281H139.973V15.0939ZM142.684 15.0939C142.71 15.0939 142.712 15.0972 142.699 15.0929C142.684 15.0878 142.649 15.0719 142.616 15.033C142.544 14.9479 142.575 14.8737 142.564 14.9236L143.31 15.0958C143.344 14.9465 143.357 14.723 143.2 14.5384C143.05 14.3602 142.833 14.3281 142.684 14.3281V15.0939ZM142.565 14.9195L138.797 30.4718L139.541 30.652L143.309 15.0998L142.565 14.9195ZM138.803 30.4519C138.8 30.4595 138.8 30.4574 138.805 30.45C138.81 30.442 138.819 30.4317 138.832 30.4226C138.859 30.4031 138.874 30.4088 138.848 30.4088V31.1745C138.99 31.1745 139.142 31.1419 139.277 31.0457C139.414 30.9483 139.494 30.8119 139.536 30.6719L138.803 30.4519ZM138.848 30.4088H136.114V31.1745H138.848V30.4088ZM136.114 30.4088C136.108 30.4088 136.111 30.4079 136.12 30.4109C136.131 30.414 136.144 30.4202 136.158 30.4307C136.187 30.4533 136.188 30.4727 136.182 30.4519L135.449 30.6719C135.488 30.8043 135.562 30.9386 135.691 31.0377C135.821 31.1379 135.972 31.1745 136.114 31.1745V30.4088ZM136.188 30.4741L133.845 20.5271L133.1 20.7027L135.443 30.6497L136.188 30.4741ZM133.844 20.522C133.831 20.4699 133.805 20.3905 133.75 20.3163C133.686 20.2313 133.569 20.1401 133.403 20.1401V20.9059C133.344 20.9059 133.286 20.8901 133.235 20.8612C133.187 20.8336 133.156 20.8001 133.137 20.7757C133.105 20.7321 133.099 20.6986 133.101 20.7078L133.844 20.522ZM133.403 20.1401C133.238 20.1401 133.121 20.2313 133.057 20.3163C133.001 20.3905 132.976 20.4699 132.963 20.522L133.706 20.7078C133.708 20.6986 133.702 20.7321 133.669 20.7757C133.651 20.8001 133.62 20.8336 133.572 20.8612C133.521 20.8901 133.463 20.9059 133.403 20.9059V20.1401ZM132.96 20.5327L130.778 30.4567L131.526 30.6212L133.708 20.6971L132.96 20.5327ZM130.775 30.4704C130.771 30.495 130.77 30.4672 130.807 30.4362C130.824 30.4219 130.841 30.4141 130.852 30.4106C130.862 30.4074 130.864 30.4088 130.853 30.4088V31.1745C131.001 31.1745 131.165 31.1367 131.302 31.0207C131.438 30.9054 131.503 30.7514 131.529 30.6074L130.775 30.4704ZM130.853 30.4088H128.303V31.1745H130.853V30.4088Z" fill="#FBB585"/>
<line x1="89.4004" y1="10.4717" x2="89.4004" y2="2.04851" stroke="white" stroke-width="1.14861"/>
<line x1="89.4004" y1="41.4844" x2="89.4004" y2="35.3584" stroke="white" stroke-width="1.14861"/>
<line x1="151.426" y1="41.4844" x2="151.426" y2="0.89999" stroke="white" stroke-width="1.14861"/>
<line x1="88.8262" y1="1.47446" x2="152" y2="1.47446" stroke="white" stroke-width="1.14861"/>
<line x1="88.8262" y1="40.9101" x2="152" y2="40.9101" stroke="white" stroke-width="1.14861"/>
</svg>
