<svg width="82" height="22" viewBox="0 0 82 22" fill="none" xmlns="http://www.w3.org/2000/svg">
<path d="M6.05582 15.6872C5.97582 15.6872 5.91982 15.6512 5.88782 15.5792L4.38782 12.2552C4.37182 12.2232 4.34782 12.2072 4.31582 12.2072H3.19982C3.15982 12.2072 3.13982 12.2272 3.13982 12.2672V15.5432C3.13982 15.5832 3.12382 15.6192 3.09182 15.6512C3.06782 15.6752 3.03582 15.6872 2.99582 15.6872H1.59182C1.55182 15.6872 1.51582 15.6752 1.48382 15.6512C1.45982 15.6192 1.44782 15.5832 1.44782 15.5432V7.43119C1.44782 7.39119 1.45982 7.35919 1.48382 7.33519C1.51582 7.30319 1.55182 7.28719 1.59182 7.28719H5.02382C5.53582 7.28719 5.98382 7.39119 6.36782 7.59919C6.75982 7.80719 7.05982 8.10319 7.26782 8.48719C7.48382 8.87119 7.59182 9.31519 7.59182 9.81919C7.59182 10.3632 7.45582 10.8312 7.18382 11.2232C6.91182 11.6072 6.53182 11.8792 6.04382 12.0392C6.00382 12.0552 5.99182 12.0832 6.00782 12.1232L7.63982 15.5192C7.65582 15.5512 7.66382 15.5752 7.66382 15.5912C7.66382 15.6552 7.61982 15.6872 7.53182 15.6872H6.05582ZM3.19982 8.73919C3.15982 8.73919 3.13982 8.75919 3.13982 8.79919V10.8512C3.13982 10.8912 3.15982 10.9112 3.19982 10.9112H4.77182C5.10782 10.9112 5.37982 10.8112 5.58782 10.6112C5.80382 10.4112 5.91182 10.1512 5.91182 9.83119C5.91182 9.51119 5.80382 9.25119 5.58782 9.05119C5.37982 8.84319 5.10782 8.73919 4.77182 8.73919H3.19982ZM11.8069 15.8192C11.1829 15.8192 10.6309 15.6912 10.1509 15.4352C9.67891 15.1792 9.31091 14.8232 9.04691 14.3672C8.78291 13.9032 8.65091 13.3712 8.65091 12.7712V10.2032C8.65091 9.61119 8.78291 9.08719 9.04691 8.63119C9.31091 8.17519 9.67891 7.82319 10.1509 7.57519C10.6309 7.31919 11.1829 7.19119 11.8069 7.19119C12.4389 7.19119 12.9909 7.31919 13.4629 7.57519C13.9429 7.82319 14.3149 8.17519 14.5789 8.63119C14.8429 9.08719 14.9749 9.61119 14.9749 10.2032V12.7712C14.9749 13.3712 14.8429 13.9032 14.5789 14.3672C14.3149 14.8312 13.9429 15.1912 13.4629 15.4472C12.9909 15.6952 12.4389 15.8192 11.8069 15.8192ZM11.8069 14.3672C12.2469 14.3672 12.6029 14.2272 12.8749 13.9472C13.1469 13.6672 13.2829 13.2952 13.2829 12.8312V10.1912C13.2829 9.72719 13.1469 9.35519 12.8749 9.07519C12.6109 8.78719 12.2549 8.64319 11.8069 8.64319C11.3669 8.64319 11.0109 8.78719 10.7389 9.07519C10.4749 9.35519 10.3429 9.72719 10.3429 10.1912V12.8312C10.3429 13.2952 10.4749 13.6672 10.7389 13.9472C11.0109 14.2272 11.3669 14.3672 11.8069 14.3672ZM19.224 15.7832C18.6 15.7832 18.052 15.6632 17.58 15.4232C17.108 15.1752 16.744 14.8312 16.488 14.3912C16.232 13.9512 16.104 13.4432 16.104 12.8672V10.0952C16.104 9.51919 16.232 9.01119 16.488 8.57119C16.744 8.13119 17.108 7.79119 17.58 7.55119C18.052 7.31119 18.6 7.19119 19.224 7.19119C19.84 7.19119 20.38 7.30719 20.844 7.53919C21.316 7.76319 21.68 8.08719 21.936 8.51119C22.2 8.92719 22.332 9.41119 22.332 9.96319C22.332 10.0352 22.284 10.0792 22.188 10.0952L20.784 10.1792H20.76C20.68 10.1792 20.64 10.1352 20.64 10.0472C20.64 9.62319 20.508 9.28319 20.244 9.02719C19.988 8.77119 19.648 8.64319 19.224 8.64319C18.792 8.64319 18.444 8.77119 18.18 9.02719C17.924 9.28319 17.796 9.62319 17.796 10.0472V12.9392C17.796 13.3552 17.924 13.6912 18.18 13.9472C18.444 14.2032 18.792 14.3312 19.224 14.3312C19.648 14.3312 19.988 14.2032 20.244 13.9472C20.508 13.6912 20.64 13.3552 20.64 12.9392C20.64 12.8512 20.688 12.8072 20.784 12.8072L22.188 12.8672C22.228 12.8672 22.26 12.8792 22.284 12.9032C22.316 12.9272 22.332 12.9552 22.332 12.9872C22.332 13.5392 22.2 14.0272 21.936 14.4512C21.68 14.8752 21.316 15.2032 20.844 15.4352C20.38 15.6672 19.84 15.7832 19.224 15.7832ZM23.7168 15.6872C23.6768 15.6872 23.6408 15.6752 23.6088 15.6512C23.5848 15.6192 23.5728 15.5832 23.5728 15.5432V7.43119C23.5728 7.39119 23.5848 7.35919 23.6088 7.33519C23.6408 7.30319 23.6768 7.28719 23.7168 7.28719H25.1208C25.1608 7.28719 25.1928 7.30319 25.2168 7.33519C25.2488 7.35919 25.2648 7.39119 25.2648 7.43119V10.7912C25.2648 10.8152 25.2728 10.8312 25.2888 10.8392C25.3048 10.8392 25.3208 10.8312 25.3368 10.8152L28.1088 7.37119C28.1568 7.31519 28.2168 7.28719 28.2888 7.28719H29.8728C29.9368 7.28719 29.9768 7.30719 29.9928 7.34719C30.0088 7.37919 30.0008 7.41919 29.9688 7.46719L27.2928 10.8872C27.2688 10.9192 27.2648 10.9472 27.2808 10.9712L30.1128 15.5192C30.1288 15.5672 30.1368 15.5952 30.1368 15.6032C30.1368 15.6592 30.0968 15.6872 30.0168 15.6872H28.4328C28.3528 15.6872 28.2968 15.6552 28.2648 15.5912L26.1288 12.1352C26.1208 12.1192 26.1088 12.1112 26.0928 12.1112C26.0768 12.1112 26.0608 12.1192 26.0448 12.1352L25.2888 13.0832C25.2728 13.1152 25.2648 13.1392 25.2648 13.1552V15.5432C25.2648 15.5832 25.2488 15.6192 25.2168 15.6512C25.1928 15.6752 25.1608 15.6872 25.1208 15.6872H23.7168ZM36.9165 8.59519C36.9165 8.63519 36.9005 8.67119 36.8685 8.70319C36.8445 8.72719 36.8125 8.73919 36.7725 8.73919H32.8365C32.7965 8.73919 32.7765 8.75919 32.7765 8.79919V10.6592C32.7765 10.6992 32.7965 10.7192 32.8365 10.7192H35.4165C35.4565 10.7192 35.4885 10.7352 35.5125 10.7672C35.5445 10.7912 35.5605 10.8232 35.5605 10.8632V12.0272C35.5605 12.0672 35.5445 12.1032 35.5125 12.1352C35.4885 12.1592 35.4565 12.1712 35.4165 12.1712H32.8365C32.7965 12.1712 32.7765 12.1912 32.7765 12.2312V14.1752C32.7765 14.2152 32.7965 14.2352 32.8365 14.2352H36.7725C36.8125 14.2352 36.8445 14.2512 36.8685 14.2832C36.9005 14.3072 36.9165 14.3392 36.9165 14.3792V15.5432C36.9165 15.5832 36.9005 15.6192 36.8685 15.6512C36.8445 15.6752 36.8125 15.6872 36.7725 15.6872H31.2285C31.1885 15.6872 31.1525 15.6752 31.1205 15.6512C31.0965 15.6192 31.0845 15.5832 31.0845 15.5432V7.43119C31.0845 7.39119 31.0965 7.35919 31.1205 7.33519C31.1525 7.30319 31.1885 7.28719 31.2285 7.28719H36.7725C36.8125 7.28719 36.8445 7.30319 36.8685 7.33519C36.9005 7.35919 36.9165 7.39119 36.9165 7.43119V8.59519ZM43.8884 7.28719C43.9284 7.28719 43.9604 7.30319 43.9844 7.33519C44.0164 7.35919 44.0324 7.39119 44.0324 7.43119V8.60719C44.0324 8.64719 44.0164 8.68319 43.9844 8.71519C43.9604 8.73919 43.9284 8.75119 43.8884 8.75119H41.7404C41.7004 8.75119 41.6804 8.77119 41.6804 8.81119V15.5432C41.6804 15.5832 41.6644 15.6192 41.6324 15.6512C41.6084 15.6752 41.5764 15.6872 41.5364 15.6872H40.1324C40.0924 15.6872 40.0564 15.6752 40.0244 15.6512C40.0004 15.6192 39.9884 15.5832 39.9884 15.5432V8.81119C39.9884 8.77119 39.9684 8.75119 39.9284 8.75119H37.8404C37.8004 8.75119 37.7644 8.73919 37.7324 8.71519C37.7084 8.68319 37.6964 8.64719 37.6964 8.60719V7.43119C37.6964 7.39119 37.7084 7.35919 37.7324 7.33519C37.7644 7.30319 37.8004 7.28719 37.8404 7.28719H43.8884ZM50.9319 8.59519C50.9319 8.63519 50.9159 8.67119 50.8839 8.70319C50.8599 8.72719 50.8279 8.73919 50.7879 8.73919H46.8639C46.8239 8.73919 46.8039 8.75919 46.8039 8.79919V10.6592C46.8039 10.6992 46.8239 10.7192 46.8639 10.7192H49.4439C49.4839 10.7192 49.5159 10.7352 49.5399 10.7672C49.5719 10.7912 49.5879 10.8232 49.5879 10.8632V12.0272C49.5879 12.0672 49.5719 12.1032 49.5399 12.1352C49.5159 12.1592 49.4839 12.1712 49.4439 12.1712H46.8639C46.8239 12.1712 46.8039 12.1912 46.8039 12.2312V15.5432C46.8039 15.5832 46.7879 15.6192 46.7559 15.6512C46.7319 15.6752 46.6999 15.6872 46.6599 15.6872H45.2559C45.2159 15.6872 45.1799 15.6752 45.1479 15.6512C45.1239 15.6192 45.1119 15.5832 45.1119 15.5432V7.43119C45.1119 7.39119 45.1239 7.35919 45.1479 7.33519C45.1799 7.30319 45.2159 7.28719 45.2559 7.28719H50.7879C50.8279 7.28719 50.8599 7.30319 50.8839 7.33519C50.9159 7.35919 50.9319 7.39119 50.9319 7.43119V8.59519ZM51.9707 15.6872C51.9307 15.6872 51.8947 15.6752 51.8627 15.6512C51.8387 15.6192 51.8267 15.5832 51.8267 15.5432V7.43119C51.8267 7.39119 51.8387 7.35919 51.8627 7.33519C51.8947 7.30319 51.9307 7.28719 51.9707 7.28719H53.3747C53.4147 7.28719 53.4467 7.30319 53.4707 7.33519C53.5027 7.35919 53.5187 7.39119 53.5187 7.43119V14.1752C53.5187 14.2152 53.5387 14.2352 53.5787 14.2352H57.5027C57.5427 14.2352 57.5747 14.2512 57.5987 14.2832C57.6307 14.3072 57.6467 14.3392 57.6467 14.3792V15.5432C57.6467 15.5832 57.6307 15.6192 57.5987 15.6512C57.5747 15.6752 57.5427 15.6872 57.5027 15.6872H51.9707ZM61.5882 15.8192C60.9642 15.8192 60.4122 15.6912 59.9322 15.4352C59.4602 15.1792 59.0922 14.8232 58.8282 14.3672C58.5642 13.9032 58.4322 13.3712 58.4322 12.7712V10.2032C58.4322 9.61119 58.5642 9.08719 58.8282 8.63119C59.0922 8.17519 59.4602 7.82319 59.9322 7.57519C60.4122 7.31919 60.9642 7.19119 61.5882 7.19119C62.2202 7.19119 62.7722 7.31919 63.2442 7.57519C63.7242 7.82319 64.0962 8.17519 64.3602 8.63119C64.6242 9.08719 64.7562 9.61119 64.7562 10.2032V12.7712C64.7562 13.3712 64.6242 13.9032 64.3602 14.3672C64.0962 14.8312 63.7242 15.1912 63.2442 15.4472C62.7722 15.6952 62.2202 15.8192 61.5882 15.8192ZM61.5882 14.3672C62.0282 14.3672 62.3842 14.2272 62.6562 13.9472C62.9282 13.6672 63.0642 13.2952 63.0642 12.8312V10.1912C63.0642 9.72719 62.9282 9.35519 62.6562 9.07519C62.3922 8.78719 62.0362 8.64319 61.5882 8.64319C61.1482 8.64319 60.7922 8.78719 60.5202 9.07519C60.2562 9.35519 60.1242 9.72719 60.1242 10.1912V12.8312C60.1242 13.2952 60.2562 13.6672 60.5202 13.9472C60.7922 14.2272 61.1482 14.3672 61.5882 14.3672ZM67.7375 15.6872C67.6495 15.6872 67.5935 15.6472 67.5695 15.5672L65.4455 7.44319L65.4335 7.39519C65.4335 7.32319 65.4775 7.28719 65.5655 7.28719H67.0535C67.1335 7.28719 67.1855 7.32719 67.2095 7.40719L68.3495 12.2912C68.3575 12.3232 68.3695 12.3392 68.3855 12.3392C68.4015 12.3392 68.4135 12.3232 68.4215 12.2912L69.5255 7.41919C69.5495 7.33119 69.6015 7.28719 69.6815 7.28719H71.1335C71.2215 7.28719 71.2775 7.32719 71.3015 7.40719L72.5015 12.2912C72.5095 12.3152 72.5215 12.3312 72.5375 12.3392C72.5535 12.3392 72.5655 12.3232 72.5735 12.2912L73.6775 7.41919C73.7015 7.33119 73.7535 7.28719 73.8335 7.28719H75.2495C75.3615 7.28719 75.4055 7.33919 75.3815 7.44319L73.4135 15.5672C73.3895 15.6472 73.3335 15.6872 73.2455 15.6872H71.8175C71.7375 15.6872 71.6855 15.6472 71.6615 15.5672L70.4375 10.3712C70.4295 10.3392 70.4175 10.3232 70.4015 10.3232C70.3855 10.3232 70.3735 10.3392 70.3655 10.3712L69.2255 15.5552C69.2095 15.6432 69.1575 15.6872 69.0695 15.6872H67.7375Z" fill="currentcolor"/>
<line x1="48.5209" y1="5.12027" x2="48.5209" y2="0.616144" stroke="black" stroke-width="0.614199"/>
<line x1="48.5209" y1="21.7037" x2="48.5209" y2="18.428" stroke="black" stroke-width="0.614199"/>
<line x1="81.6877" y1="21.7037" x2="81.6877" y2="0.00200842" stroke="black" stroke-width="0.614199"/>
<line x1="48.2139" y1="0.309173" x2="81.9948" y2="0.309173" stroke="black" stroke-width="0.614199"/>
<line x1="48.2139" y1="21.3966" x2="81.9948" y2="21.3966" stroke="black" stroke-width="0.614199"/>
</svg>
